/* XPM */
static char *result[] = {
/* columns rows colors chars-per-pixel */
"80 80 221 2 ",
"   c #000000",
".  c #0B0401",
"X  c #0B0B0B",
"o  c #06070A",
"O  c #130A06",
"+  c #1C1308",
"@  c #080D1E",
"#  c #060A17",
"$  c #151414",
"%  c #1E1D1D",
"&  c #191616",
"*  c #0A1619",
"=  c #2B1C0C",
"-  c #231509",
";  c #2C1D10",
":  c #33230F",
">  c #342C00",
",  c #342411",
"<  c #3A2814",
"1  c #30250C",
"2  c #090E22",
"3  c #0B1026",
"4  c #0C122B",
"5  c #041B27",
"6  c #0E1634",
"7  c #0D1B38",
"8  c #11193C",
"9  c #171E25",
"0  c #04242A",
"q  c #192329",
"w  c #082735",
"e  c #172835",
"r  c #003C3C",
"t  c #063238",
"y  c #19323E",
"u  c #232323",
"i  c #2B2B2B",
"p  c #2E2723",
"a  c #362D23",
"s  c #3C3228",
"d  c #333333",
"f  c #3C3C3C",
"g  c #393836",
"h  c #283634",
"j  c #201F20",
"k  c #432E14",
"l  c #432D18",
"z  c #463114",
"x  c #483215",
"c  c #453A02",
"v  c #44372A",
"b  c #483E34",
"n  c #305B2F",
"m  c #326C3D",
"M  c #534905",
"N  c #675500",
"B  c #506A1E",
"V  c #786400",
"C  c #707712",
"Z  c #5B4D3D",
"A  c #554738",
"S  c #504736",
"D  c #467633",
"F  c #6E7327",
"G  c #65513E",
"H  c #131D43",
"J  c #141F49",
"K  c #15214D",
"L  c #172143",
"P  c #1A3442",
"I  c #172352",
"U  c #182556",
"Y  c #19265A",
"T  c #1A285E",
"R  c #1A2957",
"E  c #112D45",
"W  c #29384B",
"Q  c #2C354B",
"!  c #1C2A63",
"~  c #004444",
"^  c #004C4C",
"/  c #0B4F44",
"(  c #005353",
")  c #005C5C",
"_  c #135846",
"`  c #394348",
"'  c #2A4656",
"]  c #364B58",
"[  c #3A515C",
"{  c #1A7159",
"}  c #0D6256",
"|  c #2C744A",
" . c #345568",
".. c #006363",
"X. c #046A66",
"o. c #106F60",
"O. c #444444",
"+. c #4C4C4C",
"@. c #404B4F",
"#. c #535353",
"$. c #595959",
"%. c #4E4F51",
"&. c #635343",
"*. c #6E5C4A",
"=. c #695746",
"-. c #705E4C",
";. c #675C51",
":. c #5B6F4D",
">. c #73614E",
",. c #7A6652",
"<. c #7E6955",
"1. c #766756",
"2. c #686554",
"3. c #555D64",
"4. c #465863",
"5. c #586B75",
"6. c #576871",
"7. c #64737A",
"8. c #6E6E72",
"9. c #B90123",
"0. c #826D00",
"q. c #8C7500",
"w. c #8F7800",
"e. c #947B00",
"r. c #987F00",
"t. c #8A7D24",
"y. c #B83C52",
"u. c #806C57",
"i. c #836E59",
"p. c #86715B",
"a. c #8A745E",
"s. c #8C7760",
"d. c #8F7862",
"f. c #857666",
"g. c #947C64",
"h. c #967E68",
"j. c #996E7B",
"k. c #B74C60",
"l. c #C34C62",
"z. c #788615",
"x. c #5B903B",
"c. c #799A28",
"v. c #699835",
"b. c #718E25",
"n. c #7BA12E",
"m. c #3A844D",
"M. c #478946",
"N. c #528D4B",
"B. c #728562",
"V. c #9C8300",
"C. c #8A9A19",
"Z. c #96920D",
"A. c #A18600",
"S. c #A58A01",
"D. c #AB8E00",
"F. c #AE9202",
"G. c #B39500",
"H. c #BB9D00",
"J. c #B69903",
"K. c #A18D15",
"L. c #97A619",
"P. c #9CA10F",
"I. c #B8B70B",
"U. c #A3AB12",
"Y. c #A9B112",
"T. c #A6A308",
"R. c #839C21",
"E. c #88A324",
"W. c #C3A300",
"Q. c #CDAB00",
"!. c #C8A700",
"~. c #D4B100",
"^. c #DAB600",
"/. c #C9B803",
"(. c #E4BF00",
"). c #CCC101",
"_. c #9C836A",
"`. c #998067",
"'. c #8D8877",
"]. c #A0876D",
"[. c #A3896F",
"{. c #A68B71",
"}. c #A98E73",
"|. c #AD9175",
" X c #AF9478",
".X c #B09477",
"XX c #B29579",
"oX c #8F8151",
"OX c #457B99",
"+X c #727D84",
"@X c #847C82",
"#X c #7B8A93",
"$X c #78848E",
"%X c #4983A3",
"&X c #4D8AAC",
"*X c #4C87A8",
"=X c #5291B5",
"-X c #5496BA",
";X c #5699BE",
":X c #528EAF",
">X c #48809F",
",X c #579BC1",
"<X c #599EC4",
"1X c #5CA4CC",
"2X c #5AA0C7",
"3X c #5FA9D2",
"4X c #5EA7D0",
"5X c #61ACD6",
"6X c #62AED9",
"7X c #64B2DD",
"8X c #65B4E0",
"9X c #848D92",
"0X c #8A959C",
"qX c #939494",
"wX c #9DA1A4",
"eX c #B4B4B4",
"rX c #BABBBB",
"tX c #A5ACB2",
"yX c #919CA4",
"uX c #C1C1C1",
"iX c None",
/* pixels */
"iXiXiXiXiXiXiXiXiXiXiXiXiXiXiXiXiXiXiXiXiXiXiXiXiXiXiXiXiXiXiXiXiXiXiXiXiXiXiXiXiXiXiX~ r r r r iXiXiXiXiXiXiXiXiXiXiXiXiXiXiXiXiXiXiXiXiXiXiXiXiXiXiXiXiXiXiXiX",
"iXiXiXiXiXiXiXiXiXiXiXiXiXiXiXiXiXiXiXiXiXiXiXiXiXiXiXiXiXiXiXiXiXiXiXiX~ ~ ~ ~ ~ ^ ^ ^ ~ ^ ~ ~ ~ ~ r t iXiXiXiXiXiXiXiXiXiXiXiXiXiXiXiXiXiXiXiXiXiXiXiXiXiXiXiX",
"iXiXiXiXiXiXiXiXiXiXiXiXiXiXiXiXiXiXiXiXiXiXiXiXiXiXiXiXiXiXiXiXiXt ~ ~ ^ ^ ^ ^ ^ ( ( ^ ( ( ^ ( ^ ^ ^ ~ ~ r iXiXiXiXiXiXiXiXiXiXiXiXiXiXiXiXiXiXiXiXiXiXiXiXiXiX",
"iXiXiXiXiXiXiXiXiXiXiXiXiXiXiXiXiXiXiXiXiXiXiXiXiXiXiXiXiXiXiXiXr ^ ^ ( ^ ( ( ) ( ) ) ) ) ( ) ( ) ( ( ( ^ ^ ~ r r iXiXiXiXiXiXiXiXiXiXiXiXiXiXiXiXiXiXiXiXiXiXiX",
"iXiXiXiXiXiXiXiXiXiXiXiXiXiXiXiXiXiXiXiXiXiXiXiXiXiXiXiXiXiXt ~ ( ( ( ) ) ) ) ) ) ....) ) ) ) ) ) ) ) ( ) ( ( ^ ~ ~ r iXiXiXiXiXiXiXiXiXiXiXiXiXiXiXiXiXiXiXiXiX",
"iXiXiXiXiXiXiXiXiXiXiXiXiXiXiXiXiXiXiXiXiXiXiXiXiXiXiXiXiXr ^ ) ) ) ) ) ) ..) ................) ) ) ) ( ) ( ( ( ^ ^ ~ ~ t iXiXiXiXiXiXiXiXiXiXiXiXiXiXiXiXiXiXiX",
"iXiXiXiXiXiXiXiXiXiXiXiXiXiXiXiXiXiXiXiXiXiXiXiXiXiXiXiX^ ( ) ) ) ) ) ) ..........................) ) ) ..( ) ( ( ^ ^ ~ ~ 0 iXiXiXiXiXiXiXiXiXiXiXiXiXiXiXiXiXiX",
"iXiXiXiXiXiXiXiXiXiXiXiXiXiXiXiXiXiXiXiXiXiXiXiXiXiX~ ^ ( ( ) ..................X.X.X.X.................) ..) ( ( ( ^ ^ ~ ~ 0 iXiXiXiXiXiXiXiXiXiXiXiXiXiXiXiXiX",
"iXiXiXiXiXiXiXiXiXiXiXiXiXiXiXiXiXiXiXiXiXiXiXiXiX~ ^ ( ( ) ............X.X.X.X.X.X.X.X.{ { { { | | | | | m x.m m m _ _ / ^ ~ 0 iXiXiXiXiXiXiXiXiXiXiXiXiXiXiXiX",
"iXiXiXiXiXiXiXiXiXiXiXiXiXiXiXiXiXiXiXiXiXiXiXiX~ ~ ^ ( ) ) ........X.X.o.m.m.m.M.x.v.c.n.n.c.c.R.E.C.L.P.P.P.P.Z.C.z.z.C B B n * iXiXiXiXiXiXiXiXiXiXiXiXiXiXiX",
"iXiXiXiXiXiXiXiXiXiXiXiXiXiXiXiXiXiXiXiXiXiXiXiX^ ^ ( ) ....{ m.| x.x.v.n.E.L.Y.I.).)./.I.I.Y.U.L.L.L.C.C.c.b.b.b.b.b.z.z.z.V z.V iXiXiXiXiXiXiXiXiXiXiXiXiXiXiX",
"iXiXiXiXiXiXiXiXiXiXiXiXiXiXiXiXiXiXiXiXiXiXiX^ ^ ( ( } m.b.c.E.L.Y.I./.I.Y.Y.L.E.n.v.N.N.N.M.M.m.m.B.B.B.[.{._.`.d.d.:.:.m n n n B iXiXiXiXiXiXiXiXiXiXiXiXiXiX",
"iXiXiXiXiXiXiXiXiXiXiXiXiXiXiXiXiXiXiXiXiXiXiX/ / m D b.P./.I.Y.L.E.n.v.v.N.m.N.XXXXXXXXXXh.1.2.;.;.;.2.<.{._.]._._.g.&.v d d n >.*.h iXiXiXiXiXiXiXiXiXiXiXiXiX",
"iXiXiXiXiXiXiXiXiXiXiXiXiXiXiXiXiXiXiXiXiXiXn n b.z.T.P.E.v.N.N.M.'. XXXXXXXXXXXXXqX X1.e 5 5 5 w w 0 4 5 q 2._._.<.q 5 5 5 4 3 2 $ A a iXiXiXiXiXiXiXiXiXiXiXiX",
"iXiXiXiXiXiXiXiXiXiXiXiXiXiXiXiXiXiXiXiXiXiXz.Z.Z.b.x.N.|.|. XXXXXXXXXXXXXXXXXXXXX2.q 5 w w w t w w w w w w 7 q d.q 7 0 w 0 5 5 5 5 &.s iXiXiXiXiXiXiXiXiXiXiXiX",
"iXiXiXiXiXiXiXiXiXiXiXiXiXiXiXiXiXiXiXiXiXC z.D :.h.].{.|..X.X.XXXXXXXXXXXXXXXXXS 5 w E E E t E t y E E P P y y e e y y y e y e e w * v iXiXiXiXiXiXiXiXiXiXiXiX",
"iXiXiXiXiXiXiXiXiXiXiXiXiXiXiXiXiXiXiXiXiX:.u.s.g.`._.{.|. X.XXXXXXXXXXXXXXX}.f 0 ' ! ' ' ' ' ] ] ]  .] [ [ [ [ Q ` [ [ ] ` ] ` ` W h v iXiXiXiXiXiXiXiXiXiXiXiX",
"iXiXiXiXiXiXiXiXiXiXiXiXiXiXiXiXiXiXiXiX*.u.p.a.g.`._.{.|.|.XX.XXXXXXXXXXXXX+.y ]  .4.4.6.5.5.6.5.+X5.5.7.5.+X7.3.%.8.7.6.6.3.%.3.$.4.S p iXiXiXiXiXiXiXiXiXiXiX",
"iXiXiXiXiXiXiXiXiXiXiXiXiXiXiXiXiXiXiXiX=.u.p.s.d.`._.[.{. X.XXXXXXXXXXXXXf.` 4.5.7.+X+X$X#X9X#X$X& $.#X0X0XqX0X$XO.9X9X+X#.$ . 7.7.8.g a iXiXiXiXiXiXiXiXiXiXiX",
"iXiXiXiXiXiXiXiXiXiXiXiXiXiXiXiXiXiXiXiXZ <.p.a.g.`._.[.{. XXX.XXXXXXXXXqXf.3.+X#X0XyXyXtXtXtXtX#.. O X $ i b s $ O . % . . - O + $X$.3.  iXiXiXiXiXiXiXiXiXiXiX",
"iXiXiXiXiXiXiXiXiXiXiXiXiXiXiXiXiXiXiXiXA <.u.a.d.g._.[.{.|..X.XXX.Xi.A j q 7.yXtXeXwX8.8.wXwXv   - k < = - - O . -.. + ; : < : + .   o b iXiXiXiXiXiXiXiXiXiXiX",
"iXiXiXiXiXiXiXiXiXiXiXiXiXiXiXiXiXiXiXiXb <.u.a.d.`._.[._.Z +   O . . s >.'.8.qX9Xg . . . . . O - < k x k k k : , _.=., < < < , : ; , - S iXiXiXiXiXiXiXiXiXiXiX",
"iXiXiXiXiXiXiXiXiXiXiXiXiXiXiXiXiXiXiXiXs ,.p.a.d.=.&     p u..XXXXXXXXXXXXXx O . - : < k l k k z x z k z k k = ,._.a.= < < , , : : ; + v iXiXiXiXiXiXiXiXiXiXiX",
"iXiXiXiXiXiXiXiXiXiXiXiXiXiXiXiXiXiXiXiXa *.a     O Z _.{.|..XXXXXXXXXXXXXXX].v = < z x x x z z x k k k k k = G _._._.< : > , , , ; = Z s iXiXiXiXiXiXiXiXiXiXiX",
"iXiXiXiXiXiXiXiXiXiXiXiXiXiXiXiXiXiXiXiXiX=.a ,.s.g.h.].[.|..XXXXXXX.XXXXXXX.Xs.l = < k x x z z z z z z k : s _._._.h.s.1X2X2X,X,X;Xp S iXiXiXiXiXiXiXiXiXiXiXiX",
"iXiXiXiXiXiXiXiXiXiXiXiXiXiXiXiXiXiXiXiXiXZ <.p.s.g.h._.].{.}..XXXXX.X|..X.X.X|.].A , = : < k k k k k < = Z ]._._._.#X3X1X1X2X,X-X;X=X4.iXiXiXiXiXiXiXiXiXiXiXiX",
"iXiXiXiXiXiXiXiXiXiXiXiXiXiXiXiXiXiXiXiXiXA <.u.a.a.g.g._.].[.}..X|.|.|.|.|.|.|..X{.a.G S < = : : : = ; p._._._.h.5X3X3X3X1X2X,X-X-X-X&XiXiXiXiXiXiXiXiXiXiXiXiX",
"iXiXiXiXiXiXiXiXiXiXiXiXiXiXiXiXiXiXiXiXiXb *.<.i.p.a.g.g._.].[.}.}.}.}.}.}.|.}.}.}..X|.}.|.p.=.G G ,.].]._._.`.7X6X6X5X3X1X2X<X,X;X=X&X*XiXiXiXiXiXiXiXiXiXiXiX",
"iXiXiXiXiXiXiXiXiXiXiXiXiXiXiXiXiXiXiXiXiXs A *.<.u.p.a.g.g._._.[.{.[.{.{.{.{.{.{.{.}.{.}.}.}.{.{.].]._.`.`.`.'.7X7X6X5X3X1X2X<X,X-X-X:X%XiXiXiXiXiXiXiXiXiXiXiX",
"iXiXiXiXiXiXiXiXiXiXiXiXiXiXiXiXiXiXiXiXiXiXs Z -.,.u.i.a.a.g._._.[.[.[.[.[.[.{.{.{.{.{.[.{.].].]._._.h.`.`.g.7X7X7X6X5X5X4X1X2X,X-X-X&X&X>XiXiXiXiXiXiXiXiXiXiX",
"iXiXiXiXiXiXiXiXiXiXiXiXiXiXiXiXiXiXiXiXiXiXiXs Z -.,.<.i.a.a.g.h._._.].].].].].].].].].].`.`.h.h.h.g.g.g.a.a.7X7X7X6X5X3X3X1X2X,X-X-X:X&X>XiXiXiXiXiXiXiXiXiXiX",
"iXiXiXiXiXiXiXiXiXiXiXiXiXiXiXiXiXiXiXiXiXiXiXiXv Z -.,.<.i.p.a.g.h._._._._._._.`.].h.h.h.g.g.g.g.d.a.a.a.p.#X7X7X7X7X7X6X5X3X2X<X-X-X=X*X%XOXiXiXiXiXiXiXiXiXiX",
"iXiXiXiXiXiXiXiXiXiXiXiXiXiXiXiXiXiXiXiXiXiX3 4 6 v &.-.>.<.u.p.a.g.h.h._.h.h.h.g.g.g.g.g.g.a.d.a.a.p.p.u.S 7X7X7X7X7X7X3X3X3X3X2X;X-X=X*X%XOXiXiXiXiXiXiXiXiXiX",
"iXiXiXiXiXiXiXiXiXiXiXiXiXiXiXiXiXiXiXiXiX2 4 6 8 H J &.*.-.,.<.i.p.d.g.g.g.g.g.g.a.a.a.a.a.a.p.p.p.i.<.s s 7X7X7X7X7X3X7X3X3X4X2X,X-X=X&X%XOXiXiXiXiXiXiXiXiXiX",
"iXiXiXiXiXiXiXiXiXiXiXiXiXiXiXiXiXiXiXiX2 2 4 6 H H K I &.*.-.,.<.u.i.p.a.a.a.a.a.a.a.p.p.p.p.i.p.<.<.,.-.8X8X8X7X7X7X7X7X3X3X3X2X,X-X=X*X%XOXiXiXiXiXiXiXiXiXiX",
"iXiXiXiXiXiXiXiXiXiXiXiXiXiXiXiXiXiXiXiX2 4 6 6 H 4 K I U U &.&.*.-.>.,.u.u.i.i.p.p.u.p.<.<.<.<.,.,.>.>.>.8X7X7X7X7X3X7X6X6X3X1X2X,X-X=X*X>XOXiXiXiXiXiXiXiXiXiX",
"iXiXiXiXiXiXiXiXiXiXiXiXiXiXiXiXiXiXiX2 4 4 6 H 2 4 H 8 K I U I U U &.=.*.-.>.u.,.,.,.,.<.,.,.,.>.>.>.*.*.8X7X7X7X7X6X6X3X6X3X3X2X,X-X&X%XOXOXiXiXiXiXiXiXiXiXiX",
"iXiXiXiXiXiXiXiXiXiXiXiXiXiXiXiXiXiXiX4 4 6 8 6 3 6 8 H H H J U U U Y U Q G G =.=.*.-.*.*.*.-.*.>.*.=.&.Z 8X8X7X7X7X6X6X7X3X3X1X2X;X=X&X%XOXOXiXiXiXiXiXiXiXiXiX",
"iXiXiXiXiXiXiXiXiXiXiXiXiXiXiXiXiXiX3 4 6 6 8 2 4 6 H J J H H H 8 U Y U U U U A +.G &.&.&.&.Z Z Z S b v 7 7X7X7X6X7X6X6X6X6X3X1X<X;X=X&X%XOXOX# iXiXiXiXiXiXiXiX",
"iXiXiXiXiXiXiXiXiXiXiXiXiXiXiXiXiXiX4 4 6 6 H 8 4 8 H J I K J J J H H 8 H Y Y Y Y U U I U Y U I I I K K # 7X7X7X6X6X6X6X6X3X3X1X2X-X=X*X%XOXOXc   iXiXiXiXiXiXiX",
"iXiXiXiXiXiXiXiXiXiXiXiXiXiXiXiXiX3 4 6 8 8 H K 4 H H I U I I I K J J J H T Y ! Y W R R Y Y U U I I I I # 8X7X7X7X6X6X6X5X5X3X2X,X-X:X*X%XOX .o   > iXiXiXiXiXiX",
"iXiXiXiXiXiXiXiXiXiXiXiXiXiXiXiXiX4 6 6 8 H K K 6 H J I T T U I U U I I I L T Q Z F K.F W T Y U R U I I o 8X7X7X7X6X6X5X5X5X3X2X;X-X:X%X  & &     V iXiXiXiXiXiX",
"iXiXiXiXiXiXiXiXiXiXiXiXiXiXiXiX4 6 6 8 H H K I 8 H K U ! ! T Y T Y 6 # @ # # R t.J.Q.J.K.` Y Y U U U U o 7X7X7X6X6X6X5X5X5X:Xs '  .'   u Q H #.  q.V iXiXiXiXiX",
"iXiXiXiXiXiXiXiXiXiXiXiXiXiXiXiX4 6 8 H H K I U ! J K U ! ! ! # # @ @ 2 @ @ @ # M ~.~.~.Q.J.Q Y Y                 d o       $ O.3.8.o   Q H 8 L   e.0.iXiXiXiXiX",
"iXiXiXiXiXiXiXiXiXiXiXiXiXiXiX4 6 8 8 H K K U Y T J I ! ! ! # @ 2 2 2 2 2 2 N M #                               j.9.l.O   tXuXuXeXeXX   H H H %.  r.q.iXiXiXiXiX",
"iXiXiXiXiXiXiXiXiXiXiXiXiXiXiX4 6 8 H J K U Y ! ! J U U U # @ 2 2 4 j V.e.0.V N                               @X9.9.9.8.X uXrXrXeXeXX   3.8 J &   V.iXiXiXiXiXiX",
"iXiXiXiXiXiXiXiXiXiXiXiXiXiX4 6 8 8 H K I U Y T ! T U U U 2 2 4 4 Q.W.G.S.r.q.0.V                             l.9.9.9.3.O uXrXrXeXeX.   . j o X F S.iXiXiXiXiXiX",
"iXiXiXiXiXiXiXiXiXiXiXiXiXiX6 8 H H K K U Y Y ! ! ! K K @ 2 2 4 W.!.Q.~.H.G.A.A.D.G.W.J.>                     k.9.9.y.X X uXrXrXeXeX$ +.a.!.!.!.G.D.iXiXiXiXiXiX",
"iXiXiXiXiXiXiXiXiXiXiXiXiX6 6 8 H J K U U Y Y ! ! Y 8 H 2 2 2 3 W.!.Q.~.~.^.G.!.~.!.H.G.S.V.c Y               $ j.@X$   $ uXrXwX        A.F.W.W.H.iXiXiXiXiXiXiX",
"iXiXiXiXiXiXiXiXiXiXiXiXiX6 8 H J K K U U ! ! ! ! ! ! 4 # 2 4 H.W.!.Q.~.^.(.(.^.Q.W.J.D.A.N c T Y Y R u       o % 8.%.                        1 q.iXiXiXiXiXiXiX",
"iXiXiXiXiXiXiXiXiXiXiXiX6 8 8 H J K U U Y Y ! ! ! ! ! @ # @ A.H.W.W.!.Q.~.~.^.~.Q.H.G.S.V.N R Y Y Y #.$.$.$.$.#.O.O.O.                                  iXiXiXiX",
"iXiXiXiXiXiXiXiXiXiXiX6 6 8 H H K K U U T ! ! ! ! ! ! ! H # 2 G.H.H.W.W.!.Q.Q.Q.!.H.F.V.e.N ! Y Y Y #.$.$.$.#.+.O.O.O.        u %                           iXiX",
"iXiXiXiXiXiXiXiXiXiXiX6 8 H H J K U U Y ! ! ! ! ! ! ! ! ! ! # q.D.G.G.H.H.W.W.H.H.G.D.V.e.Q ! ! ! #.#.$.$.$.#.+.O.&           f u d d o                       iX",
"iXiXiXiXiXiXiXiXiXiX6 8 8 H H J K U U Y ! ! ! ! ! ! ! ! ! ! ! M q.S.D.G.G.H.G.G.D.D.S.r.0.T T Y Y #.$.$.$.%.+.O.O.    g       O.% % j u d                     iX",
"iXiXiXiXiXiXiXiXiXiX6 8 H H K K I U ! ! ! ! ! ! ! ! ! ! ! ! H   M q.A.A.D.F.D.S.A.V.r.e.+   H T #.#.$.$.#.%.+.+.O.  i i         % % u u g d                   iX",
"iXiXiXiXiXiXiXiXiXiXiX8 H H K K U Y Y ! ! ! ! ! ! ! ! ! ! #       . q.V.A.A.V.r.r.e.q.q.        $.$.$.$.#.+.O.O.    d f         +.% % d O.% d               iXiX",
"iXiXiXiXiXiXiXiXiXiXiXiX8 J K I U Y ! ! ! ! ! ! ! ! ! !               q.r.r.q.q.M                   $.$.+.+.+.O.  i j S %.      #.% j O.O.q % u             iXiX",
"iXiXiXiXiXiXiXiXiXiXiXiXiX8 J I Y Y ! ! ! ! ! ! ! ! ! ! @               0.                                +.O.O.  g j j O.      O.% % #.b % % i           iXiXiX",
"iXiXiXiX        iXiXiXiXiXiX6 J U Y ! ! ! ! ! ! ! ! ! ! !                                                   +.u   d u j j       $.g % +.u % % % d         iXiXiX",
"iXo o             iXiXiXiXiXiX6 H U ! ! ! ! ! ! ! ! ! ! ! #                                                 O.    u j q q u       #.O.+.q % % % i o         iXiX",
"iXo               iXiXiXiXu u j 6 H I T ! ! ! ! ! ! ! ! ! !                                                 O.  X f f j j j       O.O.#.% % d O.O.d         iXiX",
"  & $               iXiXu u u u u 4 H K ! ! ! ! ! ! ! ! ! !                                                 O.  o g $.$.%.g       +.#.#.f O.#.#.S q         iXiX",
"  i u o             iXu u u u u u u 4 H K Y Y Y ! ! ! ! ! ! !                                             +.O.u   u j f #.#.$.    $.%.O.#.O.O.u % % i       iXiX",
"  Q S u             u u u u u u u u u u 8 J Y Y Y ! ! ! T T T                                           o O.O.O.  g j j j i +.    O.O.O.$.O.% % % % i         iX",
"  +.#.i             $ u u u u u i u u u u 8 K I U U U Y U Y Y                                           O.f g iX  g u j j j j .     ` O.%.O.% % % % p         iX",
"  +.O.f o             d d i u u u i u i i u u K K I U U U U U Y                                       iXiXiXiXiX  i q j j g #.+.    S +.%.+.+.u % % % o       iX",
"iXO.  +.u             O.O.O.O.O.O.i i i u i i i L K K K I K I I U                                     iXiXiXiXiXiXo u i +.$.#.%.    #.#.O.O.#.%.O.q % %       iX",
"iXd #.#.u             iXiXiX+.O.O.O.+.+.+.O.i u i i i i i i i i f O.                                iXiXiXiXiXiXiX  g +.$.+.j j +.%.%.O.O.f j f +.+.d i         ",
"iX& $.#.u &           iXiXiXiXiXiX+.+.+.O.O.O.f +.$.i i i d O.O.O.+.+.                            iXiXiXiXiXiXiXiX  u d u j u u $.+.O.%.+.%.% % % f g d         ",
"iX  g +.u             iXiXiXiXiXiXiXiXiXiX$.#.+.+.O.O.O.f O.+.#.$.$.$.d                         iXiXiXiXiXiXiXiXiX    d j j j i +.i +.#.j %.d % % % % i         ",
"iXiXu d u             iXiXiXiXiXiXiXiXiXiXiXiXiXiX$.$.#.+.#.$.#.O.iXiXiX                  iXiXiXiXiXiXiXiXiXiXiXiXiX  i j j u O.+.% a #.% f +.% % % u &       iX",
"iXiX  u X           iXiXiXiXiXiXiXiXiXiXiXiXiXiXiXiXiXiXiXiXiXiXiXiXiXiXiX          iXiXiXiXiXiXiXiXiXiXiXiXiXiXiXiXiX  g j % $.O.j q %.% 9 +.S % j i         iX",
"iXiXiX        iXiXiXiXiXiXiXiXiXiXiXiXiXiXiXiXiXiXiXiXiXiXiXiXiXiXiXiXiXiXiXiXiXiXiXiXiXiXiXiXiXiXiXiXiXiXiXiXiXiXiXiX  o d d #.% j j %.% j u @.q % d       iXiX",
"iXiXiXiXiXiXiXiXiXiXiXiXiXiXiXiXiXiXiXiXiXiXiXiXiXiXiXiXiXiXiXiXiXiXiXiXiXiXiXiXiXiXiXiXiXiXiXiXiXiXiXiXiXiXiXiXiXiXiXiX  % g O.j j j %.j % j S g p &       iXiX",
"iXiXiXiXiXiXiXiXiXiXiXiXiXiXiXiXiXiXiXiXiXiXiXiXiXiXiXiXiXiXiXiXiXiXiXiXiXiXiXiXiXiXiXiXiXiXiXiXiXiXiXiXiXiXiXiXiXiXiXiXiX  d d % j j +.i j j % n d         iXiX",
"iXiXiXiXiXiXiXiXiXiXiXiXiXiXiXiXiXiXiXiXiXiXiXiXiXiXiXiXiXiXiXiXiXiXiXiXiXiXiXiXiXiXiXiXiXiXiXiXiXiXiXiXiXiXiXiXiXiXiXiXiX    $ d j % f f % % u d         iXiXiX",
"iXiXiXiXiXiXiXiXiXiXiXiXiXiXiXiXiXiXiXiXiXiXiXiXiXiXiXiXiXiXiXiXiXiXiXiXiXiXiXiXiXiXiXiXiXiXiXiXiXiXiXiXiXiXiXiXiXiXiXiXiXiX      d d d d i d i o         iXiXiX",
"iXiXiXiXiXiXiXiXiXiXiXiXiXiXiXiXiXiXiXiXiXiXiXiXiXiXiXiXiXiXiXiXiXiXiXiXiXiXiXiXiXiXiXiXiXiXiXiXiXiXiXiXiXiXiXiXiXiXiXiXiXiXiXiX      % u $ o         iXiXiXiXiX",
"iXiXiXiXiXiXiXiXiXiXiXiXiXiXiXiXiXiXiXiXiXiXiXiXiXiXiXiXiXiXiXiXiXiXiXiXiXiXiXiXiXiXiXiXiXiXiXiXiXiXiXiXiXiXiXiXiXiXiXiXiXiXiXiXiXiX            iXiXiXiXiXiXiXiX",
"iXiXiXiXiXiXiXiXiXiXiXiXiXiXiXiXiXiXiXiXiXiXiXiXiXiXiXiXiXiXiXiXiXiXiXiXiXiXiXiXiXiXiXiXiXiXiXiXiXiXiXiXiXiXiXiXiXiXiXiXiXiXiXiXiXiXiXiX    iXiXiXiXiXiXiXiXiXiX"
};
