/* XPM */
static char *result[] = {
/* columns rows colors chars-per-pixel */
"51 80 162 2 ",
"   c #050102",
".  c #0B0104",
"X  c #0D090D",
"o  c #0D060A",
"O  c #10060B",
"+  c #120E10",
"@  c #181317",
"#  c #1C151D",
"$  c #151517",
"%  c #21191F",
"&  c #042F18",
"*  c #033216",
"=  c #08351F",
"-  c #05371A",
";  c #1E1721",
":  c #1E1921",
">  c #211621",
",  c #221B23",
"<  c #1C2A26",
"1  c #0A3E23",
"2  c #173224",
"3  c #263D37",
"4  c #3C383A",
"5  c #0B4526",
"6  c #0A4926",
"7  c #0D462A",
"8  c #0D4C2C",
"9  c #074623",
"0  c #10452A",
"q  c #114C2E",
"w  c #0D512E",
"e  c #11512E",
"r  c #0E4A30",
"t  c #124D31",
"y  c #0F5231",
"u  c #125333",
"i  c #195636",
"p  c #145A37",
"a  c #155939",
"s  c #18553C",
"d  c #234139",
"f  c #1C5C42",
"g  c #2A4F48",
"h  c #346E5F",
"j  c #464B43",
"k  c #77645A",
"l  c #726F70",
"z  c #7A7878",
"x  c #8A735F",
"c  c #338769",
"v  c #3D8A76",
"b  c #9FA213",
"n  c #AAAC10",
"m  c #BDC31A",
"M  c #CDCF19",
"N  c #C5C61A",
"B  c #CFD218",
"V  c #D3D51B",
"C  c #F3F80E",
"Z  c #E1E219",
"A  c #EFF51C",
"S  c #F2F615",
"D  c #F3F915",
"F  c #F2F51D",
"G  c #F3F91D",
"H  c #F8FA1F",
"J  c #EBEC23",
"K  c #EAEE29",
"L  c #EEF425",
"P  c #EEF52D",
"I  c #F2F524",
"U  c #F5F923",
"Y  c #F3F52A",
"T  c #F4F92B",
"R  c #F8F92A",
"E  c #F3EE37",
"W  c #F3F531",
"Q  c #968066",
"!  c #BCA47F",
"~  c #F2E74F",
"^  c #F4EC4A",
"/  c #F3EA52",
"(  c #F2E457",
")  c #F3DC78",
"_  c #F3E16F",
"`  c #4BA38D",
"'  c #48AC92",
"]  c #4AB79C",
"[  c #4BBA9E",
"{  c #51BB9F",
"}  c #50B59B",
"|  c #4DBDA1",
" . c #45BFA4",
".. c #52BEA3",
"X. c #41C0A6",
"o. c #4EC1A4",
"O. c #4EC5A9",
"+. c #4BC8AC",
"@. c #53C2A6",
"#. c #59C3A6",
"$. c #55C8A7",
"%. c #55C5A9",
"&. c #59C5AA",
"*. c #56C9AC",
"=. c #5ACAAD",
"-. c #55CAB1",
";. c #5CCDB1",
":. c #5CD2B5",
">. c #5DD6B8",
",. c #5AD6B8",
"<. c #6BC3A4",
"1. c #61CCB2",
"2. c #61D0B4",
"3. c #63D5B9",
"4. c #6ED0B3",
"5. c #A19D9F",
"6. c #BAA484",
"7. c #CCB08C",
"8. c #D1B38F",
"9. c #D9B795",
"0. c #D9B995",
"q. c #D5B593",
"w. c #9ACBA8",
"e. c #A2CAA9",
"r. c #B0C9A8",
"t. c #DCC09F",
"y. c #F2D687",
"u. c #E5C299",
"i. c #EBC69E",
"p. c #F2C89D",
"a. c #F3D693",
"s. c #C6CBA7",
"d. c #DFCFA8",
"f. c #D5D8B3",
"g. c #E4CFA7",
"h. c #EFCCA2",
"j. c #F4CEA6",
"k. c #FBCFA6",
"l. c #F4CFA9",
"z. c #EED1A3",
"x. c #F4D0A6",
"c. c #FCD0A6",
"v. c #F5D1A9",
"b. c #FAD4AA",
"n. c #FDDAAF",
"m. c #F4CDB3",
"M. c #FBD7B0",
"N. c #FCDCB2",
"B. c #F5D0B4",
"V. c #FCE1B5",
"C. c #F0DBC3",
"Z. c #EADDD2",
"A. c #EFE4D6",
"S. c #F5E9DE",
"D. c #F5E5D5",
"F. c #EFEAE5",
"G. c #F3ECE5",
"H. c #F5F5F5",
"J. c #F5F7FA",
"K. c #F6F9FC",
"L. c #FAFCFC",
"P. c None",
/* pixels */
"P.P.P.P.P.P.P.P.P.P.B P.P.P.P.P.P.P.P.P.P.P.P.P.P.P.P.P.P.P.P.P.P.P.P.P.P.P.P.P.P.P.P.P.P.P.P.P.P.P.P.",
"P.P.P.P.P.P.P.P.P.P.P.P.I U m P.P.P.P.P.P.P.P.P.P.P.P.P.P.P.P.P.P.P.P.I P P.P.P.P.P.P.P.P.P.P.P.P.P.P.",
"P.P.P.P.P.P.P.P.P.P.P.P.P.U I F I U P.P.P.P.P.P.P.P.P.P.P.P.P.P.P.Y I P.P.P.P.P.P.P.P.P.P.P.P.P.P.P.P.",
"P.P.P.P.P.P.P.P.P.P.P.P.P.P.I F F I I I T P.P.P.P.P.P.P.P.P.U Y D T P.P.P.P.P.P.P.P.P.P.P.P.P.P.P.P.P.",
"P.P.P.P.P.P.P.P.P.P.P.P.P.P.P.Y I Y F I I I R P.P.P.P.V L Y W Y I P.P.P.P.P.P.P.P.P.P.P.P.P.P.P.P.P.P.",
"P.P.P.P.P.P.P.P.P.P.P.P.P.P.P.n L I L I Y F Y T L A A I I I F I I H P.P.P.P.P.P.P.P.P.P.P.P.P.P.P.P.P.",
"P.P.P.P.P.P.P.P.P.P.P.P.P.J I Y Y I I I F I Y I L Y F F I Y I F I I I L N P.P.P.P.P.P.P.P.P.P.P.P.P.P.",
"P.P.P.P.P.P.P.P.P.P.P.I F L I Y I Y I T Y I Y I I A Y L F I Y F I Y S I G L n P.P.P.P.P.P.P.P.P.P.P.P.",
"P.P.P.P.P.P.P.P.P.P.I I Y Y I Y T I Y I I Y Y J F Y Y Y Y Y F I T Y F I A I I I P.P.P.P.P.P.P.P.P.P.P.",
"P.P.P.P.P.P.P.P.R I I F F Y L Y Y F I Y I Y I F Y I I I F I Y I W Y I I C I I I F Z P.P.P.P.P.P.P.P.P.",
"P.P.P.P.P.P.P.I I I F I K I Y F F I Y Y Y I I I I Y I Y I I I I U F Y I / l.l._ Y Y I P.P.P.P.P.P.P.P.",
"P.P.P.P.P.P.I Y I F I F I F I Y I F I I F Y W I I I I F F U F I U F F I Y j.j.j.j.P.V I N P.P.P.P.P.P.",
"P.P.P.P.P.I I I I F F U ^ m.m.I W F I I W T Y L L m.l.G I L I F I Y I Y Y y.l.c.l.x.P.P.P.P.P.P.P.P.P.",
"P.P.P.U I I Y I Y l.x.j.x.l.E Y I I Y I I I I / j.j.x.x.l.D A S I I I R I I v.k.v.x.v.P.P.P.P.P.P.P.P.",
"P.P.J M P.P.P.j.v.l.l.j.x.v.Y I Y I Y F I U x.x.v.x.x.x.j.x.m.G I Y F I F I F l.x.x.v.x.P.P.P.P.P.P.P.",
"P.P.P.P.P.P.v.j.k.l.l.x.l.) Y I I I Y I l.l.l.v.v.l.v.l.b.j.x.l.l.I I F F I I m.x.x.x.v.v.P.P.P.P.P.P.",
"P.P.P.P.P.v.v.x.x.v.v.v.v.I S I I F W l.x.x.l.j.j.j.x.j.j.j.x.x.l.v.l.F I I D F v.v.v.v.v.x.P.P.P.P.P.",
"P.P.P.P.z.l.l.x.v.v.v.v.E F L F F m.v.j.x.l.l.x.l.j.j.j.l.v.j.l.j.v.l.l.x.F Y Y G v.x.v.v.v.N.P.P.P.P.",
"P.P.P.P.x.l.l.x.x.j.l.x.F F F Y x.v.v.l.x.v.l.j.v.j.j.l.j.l.x.x.x.l.l.x.x.x.( A I a.x.v.v.v.j.P.P.P.P.",
"P.P.P.v.j.j.v.v.l.x.x.D F I m.x.x.x.v.v.l.l.v.l.l.v.v.v.x.l.x.l.j.l.x.x.x.v.x.x.S I l.x.x.b.l.x.P.P.P.",
"P.P.P.j.x.x.x.v.x.j.x.F D l.x.x.v.x.k.x.v.l.x.x.l.x.l.l.v.l.x.h.j.x.x.x.x.x.x.x.l._ G l.l.l.j.v.P.P.P.",
"P.P.b.l.x.x.v.l.j.j.m.~ x.l.x.x.j.j.x.l.v.j.l.v.x.j.h.l.l.v.x.l.x.x.l.x.j.x.x.x.x.j.v.x.j.j.l.j.l.P.P.",
"P.P.z.l.j.j.x.v.x.j.l.j.x.x.x.l.j.x.l.l.l.x.l.l.x.x.l.b.j.h.x.l.l.l.l.j.x.j.j.j.j.l.v.j.l.l.j.v.v.P.P.",
"P.P.x.l.x.l.l.x.x.h.j.j.l.z.x.l.x.v.x.j.l.l.j.x.x.x.x.v.v.x.l.x.j.x.v.h.j.x.l.x.l.v.l.v.v.j.x.x.v.b.P.",
"P.b.l.j.x.x.x.j.l.l.j.j.x.x.v.l.x.j.j.v.j.v.v.j.x.x.x.x.j.x.l.x.x.j.l.v.x.v.j.x.l.v.x.v.v.m.j.j.x.x.P.",
"P.v.x.v.x.x.x.x.l.j.x.j.j.x.x.l.j.j.b.h.p.l.x.x.j.j.j.l.l.x.x.v.v.l.j.x.x.x.l.l.x.l.l.x.x.x.v.j.l.x.P.",
"P.x.x.l.l.j.l.v.l.x.l.l.j.l.v.l.d.H.H.H.H.H.H.j.l.x.v.l.x.F.H.H.H.J.K.i.j.v.v.x.x.x.x.x.x.x.x.x.x.x.q.",
"P.v.x.x.h.l.v.x.x.l.l.x.x.l.v.H.H.H.H.H.H.H.H.H.u.v.x.v.H.H.H.H.H.H.H.H.G.v.x.l.v.x.x.x.x.v.l.j.v.x.x.",
"7.v.l.x.x.v.v.x.l.x.l.x.x.x.H.H.H.H.H.H.H.H.H.H.H.x.x.H.H.H.H.H.H.H.H.H.H.K.x.v.x.v.c.x.j.j.l.x.b.j.x.",
"v.x.j.l.x.x.x.l.x.l.x.j.l.H.H.H.H.H.H.H.H.H.H.H.H.Z.C.H.H.H.H.H.H.H.H.H.H.H.G.j.j.x.x.j.l.x.j.l.j.l.l.",
"x.x.x.x.x.l.v.l.v.l.h.l.A.H.H.H.H.H.H.H.H.H.H.H.H.H.H.H.H.H.H.H.H.H.H.H.H.H.H.l.j.v.l.x.x.v.v.x.v.x.x.",
"b.v.v.l.l.h.x.l.v.l.x.j.H.H.H.H.H.H.H.H.H.H.H.H.H.H.H.H.H.H.H.H.H.H.H.H.H.H.H.H.j.l.j.l.x.l.v.v.x.x.x.",
"v.l.j.j.l.l.x.l.l.x.x.p.H.H.H.H.H.H.H.H.H.H.H.H.H.L.H.H.H.J.H.H.H.H.H.H.H.H.H.H.j.j.x.j.j.j.l.v.x.x.j.",
"l.j.h.v.j.j.j.j.j.h.j.S.H.H.H.H.H.H.H.H.H.  o H.H.H.H.H.H..   H.H.H.H.H.H.H.H.H.x.b.v.b.j.l.l.x.l.x.z.",
"8.l.v.v.z.v.x.x.j.x.x.H.H.H.H.H.H.H.H.H.H.5.l H.H.K.H.H.H.4 z H.H.H.H.H.H.H.H.H.p.l.x.j.x.l.x.x.x.x.v.",
"P.l.l.v.v.j.j.j.j.j.h.F.H.H.H.H.H.H.H.H.H.H.H.H.H.j.G.H.H.H.H.H.H.H.H.H.H.H.H.H.p.j.j.j.x.v.x.x.x.l.v.",
"P.x.v.v.x.x.j.h.j.j.l.j.H.H.H.H.H.H.H.H.H.H.H.H.H.c.x.H.H.H.H.H.H.H.H.H.H.H.H.H.x.x.l.l.j.j.x.j.j.x.q.",
"P.l.j.x.j.j.j.l.j.h.j.j.H.H.H.H.H.H.H.H.H.H.H.H.l.l.x.S.H.J.H.H.H.H.H.H.H.H.H.H.x.l.l.j.j.v.x.x.x.x.P.",
"P.N.j.h.l.j.j.h.l.l.v.j.b.H.H.H.H.H.H.H.H.H.H.p.j.x.x.j.J.H.H.H.H.H.H.H.H.H.H.p.l.x.k.x.j.j.j.x.x.l.P.",
"P.P.l.v.j.h.l.j.l.h.j.l.x.S.H.H.H.H.H.H.H.H.x.x.j.j.j.j.v.J.H.H.H.H.H.H.H.H.D.b.l.x.x.j.j.x.l.x.j.M.P.",
"P.P.l.j.b.l.l.x.l.j.j.j.j.j.p.K.H.H.H.K.l.x.j.l.j.j.x.l.x.l.x.H.H.H.H.H.H.x.l.l.x.x.v.x.j.x.x.x.v.P.P.",
"P.P.n.l.x.v.x.x.l.j.j.j.j.j.j.l.l.x.x.x.v.x.l.j.x.x.j.x.x.j.x.l.x.x.x.x.x.x.l.x.x.x.x.v.x.l.l.x.j.P.P.",
"P.P.P.j.v.x.x.l.x.j.l.j.x.j.v.l.l.j.x.x.x.j.x.x.l.j.x.x.x.x.x.j.l.l.x.x.l.x.v.l.v.x.v.x.v.x.b.x.P.P.P.",
"P.P.P.v.x.x.l.x.j.j.j.v.j.x.v.l.x.l.l.c.x.b.x.l.x.x.x.j.x.x.l.x.x.x.v.x.l.v.v.x.x.b.x.v.x.v.v.v.P.P.P.",
"P.P.P.P.l.x.v.x.l.v.v.l.v.v.l.v.l.l.v.l.x.j.x.x.z.l.x.j.l.x.v.v.l.x.x.v.v.x.v.v.x.v.v.v.v.v.v.P.P.P.P.",
"P.P.P.P.6.v.x.x.v.v.l.v.v.x.l.v.x.l.l.v.l.x.x.x.x.x.l.l.l.v.l.x.x.x.x.l.x.v.x.x.x.x.x.x.x.v.l.P.P.P.P.",
"P.P.P.P.P.v.x.v.x.v.j.j.v.l.x.j.l.x.v.v.x.v.x.x.l.x.l.l.j.x.v.v.j.v.l.l.v.l.j.j.v.v.l.l.l.l.P.P.P.P.P.",
"P.P.P.P.P.P.l.x.l.l.l.x.x.x.v.x.b.v.v.x.j.x.x.v.l.l.l.x.x.l.h.l.x.v.x.v.v.l.j.j.v.x.l.v.l.P.P.P.P.P.P.",
"P.P.P.P.P.P.P.v.l.v.j.l.j.j.j.j.x.x.j.v.x.x.m.x.j.x.v.x.x.x.x.x.j.j.x.v.x.j.x.x.l.x.j.x.P.P.P.P.P.P.P.",
"P.P.P.P.P.P.P.P.x.x.j.j.j.l.l.l.j.j.x.x.l.x.X N.N.N.k   b.x.x.l.l.j.x.j.x.l.v.x.j.j.x.N.P.P.P.P.P.P.P.",
"P.P.P.P.P.P.P.P.+.j.j.j.j.l.x.j.j.j.j.x.v.h.x.v.v.l.x.v.x.9.x.v.j.j.v.x.x.v.j.l.j.j.<.&.P.P.P.P.P.P.P.",
"P.P.P.P.P.P.P.P.$.*.j.j.j.x.v.x.l.v.l.v.x.l.l.x.l.l.v.v.l.x.l.l.l.v.v.v.x.v.j.j.x. .;.@.=.P.P.P.P.P.P.",
"P.P.P.P.P.P.P.=.@.;...r.x.l.l.v.j.v.x.z.v.l.x.x.l.l.j.x.x.x.x.x.l.l.v.v.l.l.l.k...@.=.@.=.P.P.P.P.P.P.",
"P.P.P.P.P.P.:.=.%.=...;. .k.x.x.j.x.x.b.j.x.x.l.j.j.x.l.x.l.x.z.x.v.x.x.j.v.@.=.%.%.=.| ;.@.P.P.P.P.P.",
"P.P.P.P.P.P.*.#.=.O.=...&.&.;.v.c.x.j.j.l.x.v.v.j.j.x.x.l.x.l.l.l.l.l.x.;.1.%.....&.&...;.@.P.P.P.P.P.",
"P.P.P.P.P.;.*.&.$.&.;.| ....&.;.=.w.c.x.x.j.l.x.x.l.v.v.x.l.x.l.l.g.*.=.=.=.O...;...&.$...*.@.P.P.P.P.",
"P.P.P.P.P.;.@.-.*.@.;.*.| ..&.] ....&.2.-.e.x.c.k.l.l.k.l.s.-.@...@.%...] ] ..&.%.&...*.@.;.@.P.P.P.P.",
"P.P.P.P.$.=.@.%.@.;.$.%...&.#.=.$.@.$...@.%.=.*.;.&.O =...&.| &.@.&.@.*.@.%.@.*.*.=...;...&...;.P.P.P.",
"P.P.P.P.@.| *.| &.=...@...&.%.=.&.1.*.&.| @.&.@.%.... ..| ..| ..| ..$.@.=.1.;.*.$.O.@.$.=.&.%.*.P.P.P.",
"P.P.P...@.&.@.| ;.| o.@.*.@.&.&.$.;.;.$.=.=.@.| | =.. %.....&.&.=.%.| ..=...=.&.=.=.&.%.$...;.@...P.P.",
"P.P.P.&...;.%...%.*.-.@.;.@.@.&.[ ] #.@.@.$.@.*.%.&.O *.%.-.*.%.&.$.%.&...| ....&.;.$.| =.&.=.| ;.P.P.",
"P.P.' $.%.&...&.%.3.;.=.1.;.$.%.O.| ..o...=.*.@.;.&.$ %.&...&.;.;.&.&.=.=.%.;...[ =.} =.=.&.=.$.*.P.P.",
"P.P.;...&.%.@.@.%.&.| ..@.| ] %.;.:.=.$.;.@.%.;.;...3 ;.;...| | &.| %...| *.;.1.=.O.. ..=.#.=.o.=.P.P.",
"P.P.&.| &.%.=...v @.%.;.%.&.@.....%.*.*.&.;.;.&.;.@.g &.@.*...&.-.@.%.@.$.$.=.*.=.*.d *.$.g.b.b.X.` P.",
"P.P.%.&.o.+.*...  $.*.*.*.=.*.%.$.&.-.*.%.$.&.O.@.@.h ..%.;...-.&.=.%.&...| @.| O.| @.+.x.v.l.v.x.f.P.",
"P.P.&.x.x.x.v.4.< %.%.| &.&.=.1.$...%.@.#.o.@.%.2.:.` ..=.:.=...%.$.%.=.$.%.*.$.&.&.h.l.v.l.l.x.l.v.P.",
"P.;.v.x.l.l.6.j.x.,.%.*.&...%.-.*.@.*.$.#.=.&...$.>.=.;.=.-.-...| ..&.....*.%.%.;.*.v.v.v.N.j.j.j.j.x.",
"P.v.l.v.l.j.l.l.v.j &.%.&.| @.%.*.=.*.%.&.&.*.=.%.;.&.&.%.&.*.*.O.%.@.O.;.*.*.;.$.$.N.j.N.j.j.j.j.j.N.",
"P.x.j.j.l.j.x j.l.:.$.;.$.;.;.$.%.&.%.&.=.&.@.&. .,.| | ..=.-.=.*.;.;.;.;.| @.%...*.@.v.l.j.x.j.j.j.u.",
"P.j.j.j.j.j.j.x.j.=.%.%.=.*.;.=.%.| ..$.....$.*...,.%.&.%.&.....%.*.=.&.=.=.] [ ..@.| l.v.x.x.x.j.j.P.",
"P.x.v.j.j.j.l.j.e.| O.@.@.%.*.@.@.&.#.$...%.@.%.1.,.-.-.&...| | [ ..*.$.;.=.%.@.@.O.| &.l.v.x.x.j.P.P.",
"P.P.j.l.j.j.j.n.=.[ =.@.@.] ....&.&.=.=.*.&.*.&.*.;.&...&.O...=.-.| *.*.=.@.2.=.;.,.q 1 0 P.Q P.P.P.P.",
"P.P.P.P.0.0.P.P.P.s 9 - c :.1.&.@.&.| | &.=.#.@...,.%.....%.....{ ..=.:.' r 1 8 w t u w 8 P.P.P.P.P.P.",
"P.P.P.P.P.P.P.P.P.6 8 5 u 8 u t 8 t 1 & * r f f f f f s r & 1 & 5 8 u t 8 8 5 7 7 u 8 u 7 P.P.P.P.P.P.",
"P.P.P.P.P.P.P.P.P.8 t 8 u r w q a y t i u y r e 7 u t u 8 w 7 7 8 8 q q t q 8 t 8 u q 8 0 P.P.P.P.P.P.",
"P.P.P.P.P.P.P.P.P.i t t y e e u u t 8 u u a y 6 8 6 u t q t r 6 q u u u u w i t q u w q t P.P.P.P.P.P.",
"P.P.P.P.P.P.P.P.P.9 r w 8 y 7 6 6 9 u 8 u 8 q u u p t y u 8 u r q 8 8 e 7 8 6 u 6 6 w 8 5 P.P.P.P.P.P.",
"P.P.P.P.P.P.P.P.P.q w 7 < # # # ; ; , > : < t p u a u t a u u 8 w w e e w 8 w 8 8 q t u 8 P.P.P.P.P.P.",
"P.P.P.P.P.P.P.# ; # $ : # : > : : , > , , : : > , > # # % # % # # , # > # # # # , ; # % 2 P.P.P.P.P.P.",
"P.P.P.P.P.# # : X P.P.P.P.P.P.P.P.P.P.P.P.P.P.P.P.+ # $ # > @ , # , , # , # , , , > , > : , : , P.P.P."
};
