/* XPM */
static char *result[] = {
/* columns rows colors chars-per-pixel */
"40 63 139 2 ",
"   c #0E0005",
".  c #0F0408",
"X  c #0F0A0A",
"o  c #060504",
"O  c #11060C",
"+  c #1E0F1B",
"@  c #140D14",
"#  c #171317",
"$  c #1C151D",
"%  c #1C1A1E",
"&  c #012C14",
"*  c #15211D",
"=  c #043118",
"-  c #05381F",
";  c #1E1721",
":  c #1F1A21",
">  c #211A23",
",  c #2B1926",
"<  c #172521",
"1  c #1B2827",
"2  c #1B2724",
"3  c #193529",
"4  c #262028",
"5  c #0A4425",
"6  c #0B4826",
"7  c #0E472A",
"8  c #0D4B2B",
"9  c #11472C",
"0  c #114C2E",
"q  c #0F512F",
"w  c #11512F",
"e  c #0F4F30",
"r  c #124E31",
"t  c #0F5130",
"y  c #125333",
"u  c #1B5737",
"i  c #195738",
"p  c #18583B",
"a  c #28423E",
"s  c #63483C",
"d  c #1B5841",
"f  c #336458",
"g  c #356D60",
"h  c #397365",
"j  c #6B5748",
"k  c #428C7A",
"l  c #9C9E0F",
"z  c #CDD015",
"x  c #D4D41E",
"c  c #F4F80B",
"v  c #EDF51A",
"b  c #F4F617",
"n  c #F1F912",
"m  c #F3F51D",
"M  c #F3F91D",
"N  c #EAEE21",
"B  c #E5E728",
"V  c #EFF523",
"C  c #F2F524",
"Z  c #F2F821",
"A  c #F3F52A",
"S  c #F7F82B",
"D  c #FCFD2C",
"F  c #F3ED3B",
"G  c #F2F530",
"H  c #F9FB32",
"J  c #A0876E",
"K  c #B99D7D",
"L  c #C5AE71",
"P  c #F2ED42",
"I  c #F4E55D",
"U  c #44AC8F",
"Y  c #44B79C",
"T  c #4AB69A",
"R  c #4CBA9E",
"E  c #4DBEA2",
"W  c #52BEA3",
"Q  c #60BFA3",
"!  c #4EC1A4",
"~  c #53C2A6",
"^  c #59C2A7",
"/  c #55C5A9",
"(  c #59C6AB",
")  c #56C9AC",
"_  c #5AC9AD",
"`  c #5CD0AF",
"'  c #56CDB0",
"]  c #5CCDB1",
"[  c #5DD1B4",
"{  c #5DD4B8",
"}  c #60C9AF",
"|  c #7BC9A9",
" . c #62CBB1",
".. c #61D2B5",
"X. c #63DEC0",
"o. c #8D898B",
"O. c #B89E80",
"+. c #B5A181",
"@. c #A29EA1",
"#. c #C4A785",
"$. c #CFB08E",
"%. c #DBBC9F",
"&. c #E1BF96",
"*. c #81C0A4",
"=. c #F5DA83",
"-. c #E4C39D",
";. c #ECC49C",
":. c #ECC89E",
">. c #F4D596",
",. c #C8CEA8",
"<. c #DDC0A1",
"1. c #E1CFA8",
"2. c #F4CEA6",
"3. c #FCCEA6",
"4. c #F4CFA9",
"5. c #EBD2AA",
"6. c #F5D0A6",
"7. c #FBD0A6",
"8. c #F5D1A9",
"9. c #FAD4AA",
"0. c #FBD9AD",
"q. c #F2C7B3",
"w. c #F4D0B0",
"e. c #FEDCB1",
"r. c #F1D5B8",
"t. c #FEE0B4",
"y. c #E5D5C0",
"u. c #EFDAC7",
"i. c #F4DEC5",
"p. c #F4E0CA",
"a. c #ECE5DD",
"s. c #F6EFE8",
"d. c #F3F0ED",
"f. c #F5F5F5",
"g. c #F6F8F7",
"h. c #F5F7FA",
"j. c #F6F9F9",
"k. c #FAFAFC",
"l. c None",
/* pixels */
"l.l.l.l.l.l.l.l.D l.l.l.l.l.l.l.l.l.l.l.l.l.l.l.l.l.l.l.l.l.l.l.l.l.l.l.l.l.l.l.",
"l.l.l.l.l.l.l.l.l.l.C C z l.l.l.l.l.l.l.l.l.l.l.l.l.l.A l.l.l.l.l.l.l.l.l.l.l.l.",
"l.l.l.l.l.l.l.l.l.l.l.C A V C H l.l.l.l.l.l.l.l.N m A l.l.l.l.l.l.l.l.l.l.l.l.l.",
"l.l.l.l.l.l.l.l.l.l.l.l.b A m m A C l.l.l.l.V V A A l.l.l.l.l.l.l.l.l.l.l.l.l.l.",
"l.l.l.l.l.l.l.l.l.l.l.l.C C C b C C V C v A m V C v C l.l.l.l.l.l.l.l.l.l.l.l.l.",
"l.l.l.l.l.l.l.l.l.S C C m A V A A A V A C A m C A C C C A l l.l.l.l.l.l.l.l.l.l.",
"l.l.l.l.l.l.l.l.A A m V A V C C C C C m C V A C C S C C V V C l.l.l.l.l.l.l.l.l.",
"l.l.l.l.l.l.l.C C C C A C C A A C C C A A C b A S G C C c A A m m l.l.l.l.l.l.l.",
"l.l.l.l.l.C C m C C A C v A V C A A A A M V V C A C m m C 4.6.L A A l.l.l.l.l.l.",
"l.l.l.l.C m m m C A C >.b C A b C A v V =.A V C A m C m b 2.2.6.9.l.l.B l.l.l.l.",
"l.l.l.C C A G I 2.6.2.n A A A m A A M 8.6.6.=.m m A b m C C 6.2.2.4.l.l.l.l.l.l.",
"l.x m l.l.2.6.2.2.2.6.A Z m A M A 6.2.2.9.6.6.2.I m m C C Z q.2.4.9.6.l.l.l.l.l.",
"l.l.l.l.0.6.4.2.6.2.F A A C A >.9.8.2.2.6.6.6.2.8.8.P A C A M 3.9.2.4.e.l.l.l.l.",
"l.l.l.l.4.6.8.8.2.6.b v A n 8.8.2.8.8.2.4.6.8.4.2.8.8.8.c M C m 6.6.4.4.l.l.l.l.",
"l.l.l.2.6.2.6.2.6.M m b 6.9.6.8.6.6.6.2.6.2.6.2.6.6.8.8.8.6.C C >.2.4.8.6.l.l.l.",
"l.l.l.2.6.2.6.2.6.A C 9.6.6.8.9.9.6.6.6.8.6.4.8.8.8.8.8.8.4.9.4.A 4.8.9.6.e.l.l.",
"l.l.4.5.8.8.2.5.F F 2.4.9.4.8.9.8.4.8.8.2.6.6.4.2.8.6.8.8.4.4.8.2.A 2.2.4.6.l.l.",
"l.l.2.2.2.6.2.2.q.4.5.8.2.2.4.6.4.4.2.2.2.6.6.6.2.2.8.8.2.6.2.4.2.8.2.2.4.6.t.l.",
"l.2.6.6.2.2.8.2.2.2.2.8.2.4.6.6.8.2.2.2.8.2.6.6.8.2.8.6.6.2.2.6.6.2.6.4.9.4.4.l.",
"l.4.2.2.4.4.2.8.4.2.2.4.9.5.2.4.8.8.2.6.8.8.2.6.2.8.6.6.6.2.2.5.6.4.4.8.4.8.8.l.",
"l.6.6.6.4.6.4.2.2.6.6.4.2.:.f.h.h.%.2.2.2.6.6.;.d.d.<.2.2.8.4.8.4.4.9.6.9.6.6.K ",
"#.2.2.4.6.4.2.2.2.2.6.6.f.f.f.f.g.d.f.6.6.6.f.f.f.f.f.f.y.6.8.9.4.6.8.2.8.6.8.9.",
"0.6.6.6.6.8.8.4.9.6.4.f.f.f.f.f.f.d.g.k.2.f.f.f.f.f.f.f.f.k.4.2.9.6.6.5.2.2.2.2.",
"2.w.6.6.8.6.4.4.4.2.f.f.f.f.f.f.f.f.f.f.2.f.f.f.f.f.f.f.f.f.%.4.6.6.2.8.8.8.8.2.",
"6.6.2.2.6.4.2.4.2.r.d.f.f.f.f.f.f.f.f.f.@.f.h.f.f.f.f.f.f.f.f.2.6.8.2.8.6.4.6.6.",
"6.8.4.4.4.4.2.2.2.f.f.f.f.f.f.f.f.f.f.f.k.f.f.f.f.f.f.f.f.f.f.;.6.2.8.2.2.6.2.6.",
"4.2.2.2.2.2.2.2.2.f.f.f.f.f.f.f.g.O f.f.o.f.f.O f.f.f.f.f.f.f.a.8.8.8.6.6.2.8.2.",
"6.6.4.2.2.8.4.2.6.f.f.f.f.f.f.f.f.g.f.f.6.f.f.k.f.f.f.f.f.f.f.f.2.2.2.2.8.4.2.8.",
"l.4.2.2.6.4.2.2.5.f.f.f.f.f.f.f.f.f.f.f.6.f.f.f.f.f.f.f.f.f.f.u.2.2.2.2.2.8.9.9.",
"l.2.2.5.4.2.2.2.2.f.f.f.f.f.f.f.f.f.f.3.8.i.f.f.f.f.f.f.f.f.f.8.6.2.8.8.6.6.4.l.",
"l.2.2.2.2.2.4.4.6.6.f.f.f.f.f.f.f.f.2.6.2.6.g.f.f.f.f.f.f.f.h.4.2.8.8.8.8.6.2.l.",
"l.e.2.2.2.2.2.2.2.2.6.f.f.f.f.f.g.2.6.6.8.6.4.p.f.g.f.f.f.h.2.4.6.8.2.8.6.6.6.l.",
"l.l.6.6.4.6.4.4.2.6.2.2.8.6.6.9.8.2.6.2.2.2.8.6.6.2.d.p.6.2.6.8.6.6.2.2.4.4.l.l.",
"l.l.4.9.6.5.2.2.4.6.2.8.5.6.6.6.8.2.8.2.6.6.6.4.8.2.6.6.6.9.6.6.2.2.6.6.9.9.l.l.",
"l.l.l.4.8.4.9.6.9.6.4.4.6.8.8.8.8.6.6.2.6.8.6.2.6.6.6.6.5.6.8.9.6.8.9.w.6.l.l.l.",
"l.l.l.e.8.4.8.4.6.6.8.9.8.8.8.6.2.8.2.2.2.6.2.2.6.4.6.9.8.8.8.8.8.8.8.4.6.l.l.l.",
"l.l.l.l.2.2.6.6.6.6.2.6.8.6.6.8.8.8.4.2.6.4.2.6.6.2.4.4.8.6.6.8.9.4.2.6.l.l.l.l.",
"l.l.l.l.l.6.6.2.2.4.2.4.6.6.6.6.9.6.2.2.6.2.6.4.6.2.4.8.8.8.6.6.4.2.2.l.l.l.l.l.",
"l.l.l.l.l.l.6.6.6.6.2.4.5.2.8.8.6.9.O.$.0.4.8.4.6.4.2.9.6.2.8.8.5.4.2.l.l.l.l.l.",
"l.l.l.l.l.l.l.6.8.2.2.6.2.6.6.8.6.4.2.2.2.4.-.9.2.6.2.4.8.6.8.2.2.5.l.l.l.l.l.l.",
"l.l.l.l.l.l./ / 2.2.4.6.6.6.4.2.6.2.2.6.6.4.6.6.2.2.8.8.6.6.6.6.} / ~ l.l.l.l.l.",
"l.l.l.l.l.) ~ _ ) 7.6.6.4.6.6.4.2.6.6.6.2.4.2.2.4.8.4.4.6.6.2.~ R R ~ ~ l.l.l.l.",
"l.l.l.l.l.) / / ~ _ ) 2.6.8.6.6.2.2.2.2.2.4.6.2.4.4.8.4.6.] } ) ^ ^ ) _ l.l.l.l.",
"l.l.l.l.) ) ) ) ) T ~ / ] 9.4.6.6.2.6.6.2.4.6.6.2.2.3.! R E ^ ~ ~ ( ) ) ] l.l.l.",
"l.l.l.l./ ~ / E ~ W R ^ ) _ ( ( ^ 5.7.2.4.4.3.*.Y W ( ) ~ T ~ ) ^ ~ ~ ~ ~ l.l.l.",
"l.l.l.( ! / ! ~ ~ } ~ W ( ~ ^ [ ~ W / ) f / ( ( _ / E E _ ^ W ~ ~ ) ( ( ] [ l.l.",
"l.l.l.! ) ) ^ ) ( _ ~ ! R ~ ) ) / ~ ) _ 1 / W _ / E W ~ _ _ ^ R ~ ~ ~ ~ ( ^ l.l.",
"l.l._ ) ( ~ ( ~ _ ~ ^ ~ ~ R ^ ) / _ / ( . ^ / ) / W W ! ( ~ ( ) ^ ~ / E _ / l.l.",
"l.l.W ^ ~ ^ W ] ( W ] ( ] W W W ' ( ^ )   ) ] W ~ [ ) ~ ~ E ~ .._ [ ) ] ( ( R l.",
"l.l.W ^ ^ ! ( ! ] ! / ( ) ) W ] E ( E ]   / ^ ( _ ( ( ( [ E ~ ~ ` g ~ ~ ! ~ / l.",
"l.^ ) _ _ ( ) ) ) ~ E ~ ( ] ) ( E ~ ' / O / ( ( ) ! ! ( / ~ ~ ] ) o | 2.6.4.1.l.",
"l.~ 9.6.2.6.% _ _ ' W ) ) ) ) ) E ] / / O / ] ] ! ! ( ) ) ) ( W _ 2.6.0.4.6.6.l.",
"l.4.4.2.2.6.9.X./ / ( ] _ ] ! ~ ( ' ( )   / /  ._ _ ] ) ~ ~ ( [ ) 9.6.j 6.2.6.2.",
"l.2.2.2.6.6.2.k E / ] ( _ _ / ( ) E (  .  / E / ] ' ~ ( _ ~ / ) / s +.4.6.6.6.4.",
"l.2.2.2.2.1.J / ] ' ~ ! / ] ] ~ ~ ~ ~ ! X ] / ~ ! ) ~ _ / ~ / _ ] ' 6.6.6.4.2.l.",
"l.6.2.2.2.2.3.! ! ' / _ ) ) ) ~ / ( ! / * ~ ) _ Y E ~ ~ ] / E ^ ! ! ,.6.6.6.9.l.",
"l.l.9.2.6.2.U / ~ / ] ~ ( E W ~ .._ / ( a ) / ~ W E / / ) ) ( { - 8 e l.l.l.l.l.",
"l.l.l.l.l.l.l.y y 7 y = d W { [ ( ) ] ( h ( W ~ ) T d & 5 8 w 0 t 8 t l.l.l.l.l.",
"l.l.l.l.l.l.l.y 8 6 7 y r p r i r y y 8 0 y y y y 6 r 7 0 5 8 y 5 8 y l.l.l.l.l.",
"l.l.l.l.l.l.l.i 8 y 8 t r y 7 0 y 8 8 8 w y 0 9 e w u y y 0 y 0 y q y l.l.l.l.l.",
"l.l.l.l.l.l.l.0 y w y r y y 0 r y y 6 8 8 6 y 8 y 8 8 8 8 r 8 r y 0 p l.l.l.l.l.",
"l.l.l.l.l.l.l., ; $ $ % $ $ $ $ > ; ; < t 3 ; $ + $ $ ; $ > > $ 2 r 6 l.l.l.l.l.",
"l.l.l.l.> > $ ; # l.l.l.l.l.l.l.l.> @ ; % $ ; > > ; ; $ $ ; , ; $ ; > > % l.l.l."
};
