/* XPM */
static char *result[] = {
/* columns rows colors chars-per-pixel */
"80 80 246 2 ",
"   c #1D1613",
".  c #1A120F",
"X  c #221A16",
"o  c #241D1A",
"O  c #291D19",
"+  c #311311",
"@  c #2B221E",
"#  c #36241C",
"$  c #2D2422",
"%  c #2D2826",
"&  c #322622",
"*  c #332925",
"=  c #3D2C24",
"-  c #352C2A",
";  c #3A2E2B",
":  c #3B322E",
">  c #37312B",
",  c #3D3432",
"<  c #3C3939",
"1  c #3D2E30",
"2  c #41271D",
"3  c #462B24",
"4  c #41332C",
"5  c #4B3328",
"6  c #56372C",
"7  c #423633",
"8  c #433935",
"9  c #4A3B35",
"0  c #453C3A",
"q  c #4A3D3B",
"w  c #563D37",
"e  c #522C30",
"r  c #673E37",
"t  c #6B3835",
"y  c #4C413E",
"u  c #4E4034",
"i  c #53443C",
"p  c #5A453A",
"a  c #5D503E",
"s  c #64443A",
"d  c #634A3D",
"f  c #69443A",
"g  c #75473C",
"h  c #4D4442",
"j  c #4B4547",
"k  c #534643",
"l  c #544945",
"z  c #5C4A44",
"x  c #544C4A",
"c  c #5B4D4A",
"v  c #574543",
"b  c #5B514E",
"n  c #5B5147",
"m  c #5D5452",
"M  c #5B5557",
"N  c #544C51",
"B  c #634D44",
"V  c #6B4C44",
"C  c #624E4B",
"Z  c #684A48",
"A  c #734C44",
"S  c #754C48",
"D  c #63534C",
"F  c #6B544C",
"G  c #695447",
"H  c #73544B",
"J  c #795649",
"K  c #635553",
"L  c #635956",
"P  c #6B5A54",
"I  c #645C5A",
"U  c #6B5D5B",
"Y  c #6C5651",
"T  c #735C54",
"R  c #7C5C53",
"E  c #735E5A",
"W  c #785955",
"Q  c #6C4F51",
"!  c #6C615D",
"~  c #66615E",
"^  c #75635C",
"/  c #7B645D",
"(  c #7A6558",
")  c #635C63",
"_  c #6D6463",
"`  c #6D6668",
"'  c #736564",
"]  c #7A6663",
"[  c #7D6964",
"{  c #736B6A",
"}  c #7B6B6A",
"|  c #736867",
" . c #7C706C",
".. c #7C7272",
"X. c #7B7578",
"o. c #756D71",
"O. c #5D5B61",
"+. c #713F4E",
"@. c #89493B",
"#. c #84584D",
"$. c #845C53",
"%. c #885B55",
"&. c #975C52",
"*. c #84635B",
"=. c #886659",
"-. c #94665C",
";. c #82604D",
":. c #A46457",
">. c #8D5C66",
",. c #836C64",
"<. c #8B6B63",
"1. c #846E6A",
"2. c #886765",
"3. c #926C64",
"4. c #996A67",
"5. c #8B7266",
"6. c #85716C",
"7. c #8C756B",
"8. c #89756A",
"9. c #93746C",
"0. c #9B736B",
"q. c #937A6E",
"w. c #987569",
"e. c #877875",
"r. c #947B73",
"t. c #9B7C73",
"y. c #937D7A",
"u. c #9C7D7A",
"i. c #987473",
"p. c #916B74",
"a. c #A8746B",
"s. c #A86A74",
"d. c #A47C74",
"f. c #A47D7B",
"g. c #A87975",
"h. c #B47B78",
"j. c #A5636C",
"k. c #9C8176",
"l. c #95827C",
"z. c #9C837B",
"x. c #988479",
"c. c #8F827D",
"v. c #A3837B",
"b. c #AB837C",
"n. c #A4897E",
"m. c #AA8679",
"M. c #B5837B",
"N. c #7B7882",
"B. c #847C83",
"V. c #B57C8A",
"C. c #A67883",
"Z. c #898387",
"A. c #9C8682",
"S. c #9B8A85",
"D. c #928C95",
"F. c #908C96",
"G. c #A48584",
"H. c #AB8584",
"J. c #A48A84",
"K. c #AB8C83",
"L. c #AD8B8B",
"P. c #A78A8A",
"I. c #B28D85",
"U. c #B38C8B",
"Y. c #B88985",
"T. c #AC9186",
"R. c #AC938C",
"E. c #A8958B",
"W. c #B3948B",
"Q. c #BB938D",
"!. c #B5998E",
"~. c #B7958B",
"^. c #B68A92",
"/. c #AC9592",
"(. c #AA9895",
"). c #B49492",
"_. c #BB9593",
"`. c #B59B93",
"'. c #BB9B94",
"]. c #BB9D9A",
"[. c #B59B9B",
"{. c #AC8E90",
"}. c #BCA29B",
"|. c #B7A29A",
" X c #BBA48F",
".X c #BC9CA1",
"XX c #BCA3A3",
"oX c #BDAAA3",
"OX c #BAA5A6",
"+X c #B8B0AC",
"@X c #9B98A3",
"#X c #C2938C",
"$X c #C5899C",
"%X c #C39693",
"&X c #C29C94",
"*X c #C39D9B",
"=X c #C99B9B",
"-X c #C99293",
";X c #C4A39B",
":X c #C9A59D",
">X c #C6A59B",
",X c #D5A69D",
"<X c #CA9AA9",
"1X c #D19DAE",
"2X c #C4A4A3",
"3X c #CAA6A2",
"4X c #C5ABA4",
"5X c #CCABA4",
"6X c #C4ABAA",
"7X c #CDACAA",
"8X c #C7A5A9",
"9X c #D0ADA6",
"0X c #D1ADAB",
"qX c #D6A7A5",
"wX c #CDB1AB",
"eX c #D2B3AD",
"rX c #D7B3AB",
"tX c #D3AEB2",
"yX c #CDB4B3",
"uX c #C6B5B3",
"iX c #D3B5B3",
"pX c #D5B9B5",
"aX c #DABBB6",
"sX c #D4B6BA",
"dX c #D6BBBA",
"fX c #D9BCBC",
"gX c #DAB5B7",
"hX c #CDAEB1",
"jX c #E2B9B3",
"kX c #DBC1BE",
"lX c #DCC2B6",
"zX c #E0C2BE",
"xX c #DABEC1",
"cX c #D6BEC1",
"vX c #C2B9C1",
"bX c #E1BEC2",
"nX c #DBC3C4",
"mX c #DDC5C9",
"MX c #DECBCC",
"NX c #D9C5C5",
"BX c #E2CBCD",
"VX c #E2C6C8",
"CX c #E4CED1",
"ZX c #E4D2D3",
"AX c #E9D5D8",
"SX c None",
/* pixels */
"SXSXSXSXSXSXSXSXSXSXSXSXSXSXSXSXSXSXSXSXSXSXSXSXSXSXSXSXSXSXSXSXSXF.@X@XB.B.e.B.c.X.X. ...c.e.e.Z.Z.F.F.F.@XSXSXSXSXSXSXSXSXSXSXSXSXSXSXSXSXSXSXSXSXSXSXSXSXSXSX",
"SXSXSXSXSXSXSXSXSXSXSXSXSXSXSXSXSXSXSXSXSXSXSXSXSXN.X.| o...} ' ' } ' K K 1.{ | [  .| ~ ` ~ ~  .| ` 6.! } | e.c.SXSXSXSXSXSXSXSXSXSXSXSXSXSXSXSXSXSXSXSXSXSXSXSX",
"SXSXSXSXSXSXSXSXSXSXSXSXSXSXSXSXSXSXSXSXSXSXX.K P P D n n D U C K } } K q v K ! ! L ! ~ ! ! ^ ! U _ e...} | U P ^ ] e.Z.SXSXSXSXSXSXSXSXSXSXSXSXSXSXSXSXSXSXSXSX",
"SXSXSXSXSXSXSXSXSXSXSXSXSXSXSXSXSXSXSXSXSXx 7 7 x K D m U K v c c K ! L U | ^ K l ! ! 8.[ } !  .) U K I | 6.m x P ! [ } { Z.Z.SXSXSXSXSXSXSXSXSXSXSXSXSXSXSXSXSX",
"SXSXSXSXSXSXSXSXSXSXSXSXSXSXSXSXX.N N l c v : v P K c 9 q c i K c c C Y U ] ] E ! D ! D v K q K ^ 6.| l m U I c 0 y i z v D [ | | X.SXSXSXSXSXSXSXSXSXSXSXSXSXSX",
"SXSXSXSXSXSXSXSXSXSXSXSXSXSXF.) < 8 8 , 7 7 @ * ; 0 q i k v 4 7 i k - q k x v x b u 8 4 l ' [ [ U _ ..X.{ { N q m y : 8 > , v y x ~ m D ` SXSXSXSXSXSXSXSXSXSXSX",
"SXSXSXSXSXSXSXSXSXSXSXSXSX) m m y > @ $ $ : ; 0 : - : 4 8 q ; 8 7 0 : y 8 x k 7 L ~ L G D ! ^ e.e.e.{ I M M I M o.b ~ m b L b l { y > @ : X.SXSXSXSXSXSXSXSXSXSX",
"SXSXSXSXSXSXSXSXSXSXSXF.B.O.I m * : : 0 0 q 0 - X # ; * * - & * 7 q q 7 * 7 P n D i m ^  .6.! I b v l I I x 0 x M l x M m L ~ ~ L ~ n , @ y SXSXSXSXSXSXSXSXSXSX",
"SXSXSXSXSXSXSXSXSXSXF.X.` b x < - , : > < y X X @ , * @ 8 8 8 q 7 y i K L y i P n Y ^ D k x l x m j h h j , h b l x I l y b m M ! ! y y y y x SXSXSXSXSXSXSXSXSX",
"SXSXSXSXSXSXSXSXSXZ. .| M _ b b h m x m m 0 x j y y y y 8 , & - & : 7 i y v p B v x q 8 1 1 y h y 8 j M 0 x j N j l b I ` | ~ m b ~ j 8 u L n SXSXSXSXSXSXSXSXSX",
"SXSXSXSXSXSXSXSXZ.} ` m  ._ m M ` m b _ h x ` m l l h I ' b v 8 9 = : 9 u w p i i q q q 0 1 1 0 b y x l x 0 b _ _ I b m l l v L | M M n 8 l M M SXSXSXSXSXSXSXSX",
"SXSXSXSXSXSXSX` { { _ ` ~ L ! ` I I m M N ` I m M | L [ 6./ Y z B F a d F ^ / Y C v F v q y 0 7 - , h M m M m M _ m m ! I b } ` m ` M ~ n L i y m SXSXSXSXSXSXSX",
"SXSXSXSXSXSXo.I P _ X.I _ ~ L h _ b m x _ ) _ I { !  .S.l.r.x.l.7.7.x.z.v.J.`.).G.k.r.} K q v y 0 0 y x I _ ~ h q L I I 0 % , j x 0 O.j 8 0 y i 4 y o.SXSXSXSXSX",
"SXSXSXSXSXm c l h L m ! M b y m m m b ~ m I I U L [ y.R.R.|./.}.4X8XiX|.iXkXwXyXiXuXOX(.} K N j 0 8 < 0 0 q h y < % - 0 % q x h x y y y x b ~ 8 i p i ~ SXSXSXSX",
"SXSXSXSX| x y h m l L x l 7 m h x x M c _ K m C ^ y.J.}.4X6XyXlXNXNXMXkXMXMXMXMXMXMXuXOXS.e.Q K q 0 : 7 - : - - , , : h < , < * < x h 0 < , y 8 u p 4 y SXSXSXSX",
"SXSXSXSXn y y y h b h 0 , h l h l b 7 L k c y E 5.!.yXyXpXpXNXNXBXZXMXMXMXMXBXZXMXMXNX+X{.B.6.K C c v j < , < q y x h h y k x x 8 8 j M m m b l h y l 8 i SXSXSX",
"SXSXSXN q q h q x , < l 8 - < q 8 ; c 7 b 8 ^ q.|.yXkXdXyXkXnXBXMXCXZXZXZXZXZXZXAXAXMXNXuX+XS.y.' K c N m c x b c h 8 , - - - - h , h y y j b I b b b m , y SXSX",
"SXSXO.l y y < x , q k * * # 8 $ 0 7 q q v B q.|.lXNXNXlXkXNXmXVXBXMXCXMXZXAXZXZXZXZXMXMXdXyXOX|.S.6.E z v q 7 8 8 > > - < < q 0 8 8 y < y < > h y 8 8 : 0 u b SX",
"SXSXM u 7 * 7 , y x j @ - & # * ; 8 7 c a e.}.aXkXNXNXNXkXdXnXBXNXmXMXCXZXZXZXZXZXZXZXMXMXNXkXdXyX6X{.e.E C K K P k u 0 q q 0 < h 0 y h , , : y 4 8 7 7 4 4 8 SX",
"SX) x q ; 0 q o y q $ X : % @ # # = u a *.!.wXpXlXkXNXkXdXdXfXVXNXmXmXMXZXMXMXZXZXZXMXZXZXZXZXMXmXcXuX.X(.G.2.5.Q T P ] _ m K K K m u , < y h y B 6.i u 8 : i SX",
"SXN y 7 - 1 $ o - -   % o o @ = @ 9 p 8.T.>XiXpXkXNXnXkXfXyXpXmXNXfXNXNXNXMXMXMXMXZXZXMXZXZXBXBXMXBXMXcXsX6X6XXX'.L.t.i.i.u.7.W T ^ D 9 = # - > Y T.8.4 y : # l ",
"SXM , 7 0 $ X o @ o * % O @ @ O 4 B ( n.}.uXwXwXaXkXkXNXdXfXdXiXfXNXnXcXNXNXMXMXZXNXZXMXBXBXBXBXBXBXmXNXcXNXdXyXyX8X2X].'.`.].R.J.J.l.5.( T p G E.4XE.c.q i : y ",
"SXN 8 , o   o   X $ X X O $ @ 9 9 *.z.E. X4X4X5XeXpXaXaXfXpXsXpXfXkXfXfXdXkXNXNXnXNXNXMXmXBXNXnXxXnXfXNXNXdXfXdXdXsXsXyXyXiXyXsXuXyXuXyX6X`. Xv.>XwX}.+X4 = u SX",
"SXSX> * &   $ X %   $ $ & * * 9 ^ *.7.z.T. X>X>X;XwXeXiXsXiXiXpXpXpXdXkXlXpXpXpXlXdXkXNXfXnXkXkXxXxXdXdXpXiXdXiXsXpXpXiXiXiXiXiXpXpXkXlXpXpXwXwXwXwXwXlX[ # u SX",
"SXSXh - o $ X %   % - % $ ; , q D ^ 5.t.m.!.;X;X5X:X5XeXeXwXeX5XwXwX5XwXpXwXeXwX0XrXgXgXeXeXgXgXiXiXiXeX7X0XiXiXeXeXeXiXiXeXtXiXeXpXfXaXpXeXeXwX9XwXuXpX}.O = x ",
"SX) > , $ @ @ o % - * $ k 8 7 k a F 5.r.v.K.I.'.>X>X>X5X9X5X7X5XwX5X5XwX5XwX:X9X5X9X9X5X:X0X0X9X9X7X9X0X9X0X0X0X0XeX0X0XeXiXrX0XeXeXiXiXiXeXeX5X4XwX4XwXwXq # k ",
"SXj * > o o . $   % $ 0 , ; y y D Y ,.<.k.v.I.~.~.&X>X:X>X5X9X9X5X5X3X3X5X5X:X>X>X>X:X3X5X3X5X:X9X7X5X0X3X7X5X0X0X9X9X9X0X7X0X5X9X9X9X9X9XwX:X:X4X4X4XwX4Xe.= m ",
"SX< * > o   .   % > > , 7 : 8 v i C *.5.t.m.W.'.~.'.>X>X5X5X9X5X5X9X5X5X:X5X:X>X3X>X3X5X9X9X0X0X7X9X0X7X5X5X3X0X5X3X3X3X3X5X0X3X9X9X:X:X:X:X:X>X>X4XwXwX4Xq.z SX",
"SXSX* * - X % % $ * , : , > h q w F T 5.m.K.K.I.'.&X'.>X9X>X5XeX9X5X5X5X5X>X3X5X3X5X5X0X7X0XgXtXsXpXsXeX7X0X5X5X3X:X:X3X3X9X9X5X5X5X:X>X>X>X>X;X>X>X4X5X X5.D SX",
"SXSX* & $   - % < 8 : , * 0 7 8 w D / t.v.K.~.Q.'.&X*X;X*X*X5X5XeXeXeX7X3X3X5X5X5X9X0XiXiXiXiXgXgXfXdXgXsXiXsXeX0X0X3X3X3X8X9X9X7X5X5X9X:X&X&X&X>X>X4X>X|.T n SX",
"SXSX< - > - % $ * , - , , - - - l C ,.q.~.~.~.&X'.*X>X;X;X3X3X7XeXiXiXyXyX7X0X7XeXtXeXiXgXsXsXfXxXxXkXnXxXdXsX0X0X0X0XiXeXsXgXsXiXeXwXeX:X:X>X!. X>X4X>X`.D a SX",
"SXSXj '.;XS.1 % $ , @ % * $ o , 4 z 6.t.W.&X&XQ.&X>X*X>X3X7X7X7XwXdXdXfXsXsXiX0XeXsXaXiXgXsXxXfXNXxXfXxXcXNXnXsXiXtXtXiXpXpXaXfXpXiXiXrXwX:X;X>X>X>X4X XE.l SXSX",
"SXSXjXh.@.g q.9 o X , - $ o * - q p / k.W.*X_.].&X*X].4X5X7X3XyXiXNXNXmXNXcXcXsXiXsXtXhXhXtXiXiXiXpXgXxXfXfXfXfXfXiXpXpXbXfXgXdXaXsXiXiXwX4X2X:X:X:X>X|.P i SXSX",
"SX>X:.@.@.-.d.Y v , , *     o O : q 2.z.L.'.2X2X*X;X].<X4X7X8XiXpXdXNXNXmXxXcXsXsXiX0XqX7X=X=X*X%X=X3X7X9X9XrX0XgXgXiXaXfXfXpXaXaXiXsXeXiXeX7X4XwXwX4X|.D x SXSX",
"SX=X@.:.0.#XK.w.i.W Y = & o $ * 8 D / k.`.;X4X3X;X3X3X6X2XhXhX7X8XhXsXpXfXyXhXtXsX8X*X*X_.=X_.U.Y.Y.#X#X#X=X>X:X9X9X9X9XrX9X5X5X3X9X3X3X7XiXhXyXiXwX6XS.8 SXSXSX",
"SX,X:.M.>XiXwX X!.K.3.=.Y : * 4 4 i ! r.R.2X4X5X;X2X6X7X7X6X8X3X*X*X<XwX].`.H.L.v.K.5.2.9.R %.3.g.g.h.M.M.M.Y.&X&X=X%X%X&X&XQ.~.Q.Q._.].5X7XsXsXkXyXoX~ SXSXSXSX",
"SX=Xh.#XrXaXrX>Xa.$.d.0.k.! 9 7 q C 1.i.`.5X5X4X3X5X4X2X].'.W.v.f.u.t.k.t.*.R d w 6 5 5 6 6 6 5 A $.-.4.a.a.g.Y.#XQ.I.d.M.b.d.m.m.g.d.!.`.}.}.6XuXwX+Xy SXSXSXSX",
"SX,X=XqXzX>Xa.&.g g M.w.W.W.a q 8 C 7.L. X4X>X5X5X4X2X].'.v.i.7.R T S B s d V J %.%.R H s r 6 6 w f f J $.w.b.b.b.g.g.-.-.-.%.R A d s H R <.r.v.T.oX(.y SXSXSXSX",
"SXjXqXjXrXM.:.-.H.-.m.eXpXXXy.k ; Y 1.K.>X5X:X>X>X5X4X'.W.d.v.7.R.`.}.).t.p.<.*.$.W S d s f f 6 6 s f A =.w.M.Y.Y.Y.a.A f w 6 5 2 2 # 5 5 6 a H q.x.S.SXSXSXSXSX",
"SXjXjXaX9Xh.a.'.~.&XrXiXpXyX|.C v E ,.W.4X5X9X9X5X;X'.K.`.~.~.m.9.<.H 5 4 w w w w B B Z S d w 5 2 r g $.a.#X5XyXiX9Xv.s 2 2 # # # 5 s B ( J A V Y 5.D.SXSXSXSXSX",
"SXnXrXfXkXY.#XeXaX>XrX3XiXwXhXe.K p.J. X;X5X;XwXwXwXwXrXrXrXrXwX>Xd.t.v.R V F H Q p w w s V H A R H J -.Q.9XxXVXBXNXOX; # X $ O $ * q = w 5 d ;.( e.SXSXSXSXSXSX",
"SXyXkXgXVX>X&XdXiX>X&XgXiXpX7Xy.] / J.}.;X;X5X5XwXpXpXrXlXwX;X X&XW.w.4.4.0.=.%.%.#.S A g f s H *.w.9.b.%XgXBXZXZXAXcXw s H >./ E T W W v 3 p ;.9.SXSXSXSXSXSXSX",
"SXSXgX:XaXzXVXkX5XeXiX3X3XiX6XG.^ ^ J.'.;X5X9XeXeXrXwXwXeXlXwX>X_.wX'.G.9.R %.J J *.$.%.2.2.<.i.b.K.U.'.3XsXVXAXAXAXmXE Z A S %.-.0.u.u.i.0.*.q.!.SXSXSXSXSXSXSX",
"SXSXSXaXwXlXwX9XjXfXjXY.Q.7X6XA.S.,.T.].4X5X5XeXwXpXrXlXrX>X}.lXaXfXpX7X8X'.W.I.L.I.U.W._._._._.'.&XQ.>X5XiXBXAXAXCXCXG.>.H J #.#.#.$.;.=.I.}.;X4XSXSXSXSXSXSXSX",
"SXSXSXOXzXBXzXlXiXiX*XQ.].7X[.J.e.x.z.`.}.;XeX5XpXpXpX9XeXkXNXlXmXVXBXVXxXsXsX7X0X7X7X3X2X3X3X3X:X*X3X3X0XiXxXBXAXAXVXXXR.t.5.3.3.=.3.=.=. X9X X+XSXSXSXSXSXSXSX",
"SXSXSXSX:XlXVXBXmXmXdXiX4XtX|.6.^ y.J.[.R.}.3X9X9XrXrXlXkXkXNXkXnXBXVXVXNXVXxXsXfXpXhXsX7XtX8X2X3X0XqX8X8X0XfXBXCXCXBXXX<X;X;X}.].}.XX4XiXpX}.4XuXSXSXSXSXSXSXSX",
"SXSXSXSXSXXX,XrXgXxXkXaX}.4X[.A.^ ,.E.'.'. X'.;X:XrXrXlXaXlXlXkXfXVXfXxXxXfXxXxXsXhXtXiXhX7X7X0X0X0XtXhXtXsXxXmXCXAXmX8X<X5XhXiXhXsXpXxXkXfXwX4X6XSXSXSXSXSXSXSX",
"SXSXSXSXSXSXSXL.Y.#X#XM.=.5X}.A.[ ,.P.`.'.'.~.&X>X5XwXwXeXwXeXrXpX0X0X0XtXtXtX0X7XqX3X=X=X3X%X*X*X%X2X8XsXsXbXbXVXCXBXwX2X8XhXtXiXdXxXxXyXaXyXwX6XSXSXSXSXSXSXSX",
"SXSXSXSXSXSXSXo.p 9.#.r r >XoX(.`.S.`.W.R.W. X'.;X:X5X:X>X>X:X:X5X9X9X5X,X=X<X-X%XY.Y.s.a.Y.%X<X<XtX8XtXgXcXbXxXVXCXxXxX.X=XtXhXgXeXgXgXsXiXyX7XoXSXSXSXSXSXSXSX",
"SXSXSXSXSXSXSXB.E f.3.R A >X}.4X|.|.|.W.T. XW.'.'.>X'.~.M.Q.&X>X>X%X=X#X#XY.h.h.s.&.&.4.j.a.<XtXxXxXsXsXsXxXVXBXmXbXbXVX.Xs.Y.=X:XqX0XiXpXiX7X4XOXSXSXSXSXSXSXSX",
"SXSXSXSXSXSXSXo.6.K.v.d.q.}.oXoX4X|.}. XW. XT.!. X'.M.m.~.>X>X=X%X#XY.M.a.4.&.%.#.-.0.g.f.4.-XqXgXzXpXsXbXxXxXVXbXbXVXVXsX_.&.a.M.-X=X3X0X5X2X4XSXSXSXSXSXSXSXSX",
"SXSXSXSXSXSXSXo.y.T.W.K.K. X|.|.}.[.].!.!.!.!.'.'. Xm.n. X&X~.Q.Y.a.-.&.#.g #.=.4.g.H.L.H.C.4.a.a.Q.&X<X8XsXsXsXcXtXcXxXxXiX#.#.&.a.M.#X=X3X].2XSXSXSXSXSXSXSXSX",
"SXSXSXSXSXSXSXSXE.W.W.W.K.~.|.}.|.|. X!.'. X!.'.~.~.n.W.;X~.m.d.-.<.w.-.$.#.=.t.G.H.H.U.L.^.C.W f t e #.a.V.#X%X&X-X%X>X3XU.%.%.&.-.a.h.Y.&X}.}.SXSXSXSXSXSXSXSX",
"SXSXSXSXSXSXSXSX|.!.'.'.W.W.(.|.|.}.}.W.'.'.!.~.W.n.n.T.~.m.t.m.t.=.R ( 5.9.w.H.H.L.L.L.).L.u.9.2.W S S g g #.-.a.-.-.w.g.d.3.$.;.;.-.-.M.I.`.`.SXSXSXSXSXSXSXSX",
"SXSXSXSXSXSXSXSX|.}.;X]./.E./.(.|.|.'.'.W.K.!. XK.T.k.T.T.v.m.v.w.=.<.=.*.5.t.v.G.K.L.).{.{.u.t.2.2.V w 6 p s A g H 4.C.G.A.9.$.;.;.#.&.-.m.E.SXSXSXSXSXSXSXSXSX",
"SXSXSXSXSXSXSXSXoX6X}.>X XT.!.!.E.!.T.T.W.K.m.W.~.K.k.v.v.v.I.m.r.7.=.H A #.3.t.h.V.L.P.G.P.C.9.2.$.S r s r r d R <.u.A.A.C.u.6.( R -.;.-.m.E.SXSXSXSXSXSXSXSXSX",
"SXSXSXSXSXSXSXSX+X6X2X;X4XK.J.E.E.E.W.n.T.t.n.n.n.n.z.k.n.m.m.k.G.q.<.,.e + + 3 5 g J =.4.Y.h.^.f.j.4.4.%.2.2.3.9.0.v.G.G.u.7.5.5.J w.w.w.m.!.SXSXSXSXSXSXSXSXSX",
"SXSXSXSXSXSXSXSXSX+XyX;X4X|.J.S.x.K.n.T.v.v.v.m.m.k.k.k.7.k.v.m.m.n.u.f.P.i.e w w ,.#.v.A A #.=.%.%.%.4.s.4.4.4.9.s.g.f.m.<.G *.,.*.k.w.k.k.SXSXSXSXSXSXSXSXSXSX",
"SXSXSXSXSXSXSXSXSXvXyX2X5X}.S.z.z.z.z.J.q.v.k.k.k.k.k.k.5.k.k.k.v.z.K.G.Y.U.H.p.e 1.7. XT.oX|.F Y.%.A t r t A f g S 3 + + w J 5.q.v.v.v.k.n.SXSXSXSXSXSXSXSXSXSX",
"SXSXSXSXSXSXSXSXSXSXuXyX}.}.`.x.x.e.q.r.k.q.q.q.q.k.8.q.q.5.8.5.r.z.K.).U.U.V..X^.>.Z P.3 [.+X .+X+Xx.E.|.|.l.A.k.+ e S d.t.q.t.n.n.m.q.k.SXSXSXSXSXSXSXSXSXSXSX",
"SXSXSXSXSXSXSXSXSXSXSXuX4X'.'.z.y.r.6.7.8.q.q.q.q.8.q.k.8.,.5.,.q.y.v.'.]._._.^._.1X<X^.p.C.e p.l.P.] [.OX[.P.Q Q +.s.H.I.K.v.k.v.k.k.k.Z.SXSXSXSXSXSXSXSXSXSXSX",
"SXSXSXSXSXSXSXSXSXSXSXSX+X~.L.).l.6.6.e.8.8.,.q.8.,.,.8.7.5.q.w.q.l.u.G.)._._.W._.%X<X<X1X1X$XC.p.i.>.>.>.j.s.V.V.^.^.).).K.r.r.q.t.t.Z.SXSXSXSXSXSXSXSXSXSXSXSX",
"SXSXSXSXSXSXSXSXSXSXSXSXSX+XL.K.K.8.6.6.1.,.,.,.,.,.5.5.7.q.7.9.q.z.l.R.).].'.].^.^.^.^.$XV.V.$X$X<X$X$X$X$X<XV.V.).).*X'.T.l.7.q.e.r.SXSXSXSXSXSXSXSXSXSXSXSXSX",
"SXSXSXSXSXSXSXSXSXSXSXSXSXSXSXJ.T.n.5.[ ,.[  .,.[ 8.( 5.5.5.7.q.e.y.A.P._._.2X].Q.H.H.h.g.s.s.j.j.j.j.j.s.s.s.C.V.{.].}.].J.x.x.8.e.SXSXSXSXSXSXSXSXSXSXSXSXSXSX",
"SXSXSXSXSXSXSXSXSXSXSXSXSXSXSXSXP.A.v.,.^ [ [ } ,.1.,.,.5.q.8.8.q.l.S.S.`.[.].].).W.f.i.<.=.R J H J R $.%.2.4.4.t.K.].].T.S.A.e.1.SXSXSXSXSXSXSXSXSXSXSXSXSXSXSX",
"SXSXSXSXSXSXSXSXSXSXSXSXSXSXSXSXSXSX5.r.q.T [ [ ] ,.,.,./ 8.,.8.e.y.l.J.(.[.}.2X'.Q.Y.f.s.i.2.%.%.R %.R %.%.<.d.U._.;X[./.J.x.e.SXSXSXSXSXSXSXSXSXSXSXSXSXSXSXSX",
"SXSXSXSXSXSXSXSXSXSXSXSXSXSXSXSXSXSXSXE l.5.Y [ ] ,.] ] [ / 5.8.6.7.B.A.(.(.XX.XXX<X*X).^.H.y.C.u.p.i.v.u.f.I.]._.OXXXOX(.c.N.SXSXSXSXSXSXSXSXSXSXSXSXSXSXSXSXSX",
"SXSXSXSXSXSXSXSXSXSXSXSXSXSXSXSXSXSXSXSXSXT ,.T ] ] / ] ^ ] 1.[ 6.7.9.G.E./.[.[.2XhX6X8X.X.X.X.XL.L.^..X]..X8X2XyXOXOX[.D.F.SXSXSXSXSXSXSXSXSXSXSXSXSXSXSXSXSXSX",
"SXSXSXSXSXSXSXSXSXSXSXSXSXSXSXSXSXSXSXSXSXSXK / ( T ^ E ^ ] [ [ 1.} 1.y.e.A.P.(.OXOX6XOX8X8X<X2X2X8X.X8X<X8X6XOX+X6X.X@XSXSXSXSXSXSXSXSXSXSXSXSXSXSXSXSXSXSXSXSX",
"SXSXSXSXSXSXSXSXSXSXSXSXSXSXSXSXSXSXSXSXSXSXSXSXx ( G T ^ ^ ^ ,.} 2.} 1.y.A.A.A.E.P.XX2XOX<X3X2X2X.X.X2X.X2X8XXX6X[.(.SXSXSXSXSXSXSXSXSXSXSXSXSXSXSXSXSXSXSXSXSX",
"SXSXSXSXSXSXSXSXSXSXSXSXSXSXSXSXSXSXSXSXSXSXSXSXSXSXL D B Y Y E } } E } | { 6.6.6.y.G.J.).P.C.^.).L.U.^.].U.[./././.SXSXSXSXSXSXSXSXSXSXSXSXSXSXSXSXSXSXSXSXSXSX",
"SXSXSXSXSXSXSXSXSXSXSXSXSXSXSXSXSXSXSXSXSXSXSXSXSXSXSXl G V K C Z K ' } ' ' U E ^ T *.q.7.i.v.b.C.f.f.d.f.d.L.i.7.N.SXSXSXSXSXSXSXSXSXSXSXSXSXSXSXSXSXSXSXSXSXSX",
"SXSXSXSXSXSXSXSXSXSXSXSXSXSXSXSXSXSXSXSXSXSXSXSXSXSXSXSXSXK R H G a B n G ^ U U K c c F Y F R *.2.<.2.<.*.=.T ^ I SXSXSXSXSXSXSXSXSXSXSXSXSXSXSXSXSXSXSXSXSXSXSX",
"SXSXSXSXSXSXSXSXSXSXSXSXSXSXSXSXSXSXSXSXSXSXSXSXSXSXSXSXSXSXSXK ( H d G B a a c U P K b C c v B V B B z C x SXSXSXSXSXSXSXSXSXSXSXSXSXSXSXSXSXSXSXSXSXSXSXSXSXSX",
"SXSXSXSXSXSXSXSXSXSXSXSXSXSXSXSXSXSXSXSXSXSXSXSXSXSXSXSXSXSXSXSXSXY H G d d G d p p u p z z C U SXSXSXSXSXSXSXSXSXSXSXSXSXSXSXSXSXSXSXSXSXSXSXSXSXSXSXSXSXSXSXSX",
"SXSXSXSXSXSXSXSXSXSXSXSXSXSXSXSXSXSXSXSXSXSXSXSXSXSXSXSXSXSXSXSXSXSXSXY H d d V s d d p d V ^ SXSXSXSXSXSXSXSXSXSXSXSXSXSXSXSXSXSXSXSXSXSXSXSXSXSXSXSXSXSXSXSXSX",
"SXSXSXSXSXSXSXSXSXSXSXSXSXSXSXSXSXSXSXSXSXSXSXSXSXSXSXSXSXSXSXSXSXSXSXSXSXSXSXJ H V V B SXSXSXSXSXSXSXSXSXSXSXSXSXSXSXSXSXSXSXSXSXSXSXSXSXSXSXSXSXSXSXSXSXSXSXSX",
"SXSXSXSXSXSXSXSXSXSXSXSXSXSXSXSXSXSXSXSXSXSXSXSXSXSXSXSXSXSXSXSXSXSXSXSXSXSXSXSXSXSXSXSXSXSXSXSXSXSXSXSXSXSXSXSXSXSXSXSXSXSXSXSXSXSXSXSXSXSXSXSXSXSXSXSXSXSXSXSX",
"SXSXSXSXSXSXSXSXSXSXSXSXSXSXSXSXSXSXSXSXSXSXSXSXSXSXSXSXSXSXSXSXSXSXSXSXSXSXSXSXSXSXSXSXSXSXSXSXSXSXSXSXSXSXSXSXSXSXSXSXSXSXSXSXSXSXSXSXSXSXSXSXSXSXSXSXSXSXSXSX",
"SXSXSXSXSXSXSXSXSXSXSXSXSXSXSXSXSXSXSXSXSXSXSXSXSXSXSXSXSXSXSXSXSXSXSXSXSXSXSXSXSXSXSXSXSXSXSXSXSXSXSXSXSXSXSXSXSXSXSXSXSXSXSXSXSXSXSXSXSXSXSXSXSXSXSXSXSXSXSXSX"
};
