/* XPM */
static char *result[] = {
/* columns rows colors chars-per-pixel */
"80 80 252 2 ",
"   c #060605",
".  c #070805",
"X  c #0B0B06",
"o  c #0E0D09",
"O  c #090704",
"+  c #120D06",
"@  c #110E09",
"#  c #1C0D06",
"$  c #0F100A",
"%  c #13120A",
"&  c #1A140A",
"*  c #1D1A0C",
"=  c #191106",
"-  c #1D1A12",
";  c #240F01",
":  c #231D0D",
">  c #291807",
",  c #351903",
"<  c #231D13",
"1  c #291E16",
"2  c #25220D",
"3  c #2C240D",
"4  c #2E2A0B",
"5  c #33240C",
"6  c #34290E",
"7  c #3B2C0D",
"8  c #38250A",
"9  c #3E340F",
"0  c #252114",
"q  c #2D2412",
"w  c #2B231A",
"e  c #2B2618",
"r  c #322512",
"t  c #352B13",
"y  c #3C2C13",
"u  c #32261C",
"i  c #332B1D",
"p  c #3A2B19",
"a  c #3C3216",
"s  c #372C24",
"d  c #3B3326",
"f  c #452808",
"g  c #542905",
"h  c #43330E",
"j  c #4B360D",
"k  c #57350C",
"l  c #422D12",
"z  c #492E16",
"x  c #433413",
"c  c #4B3412",
"v  c #463A12",
"b  c #4C3C15",
"n  c #4B3D19",
"m  c #44381A",
"M  c #553B16",
"N  c #552C11",
"B  c #683809",
"V  c #473929",
"C  c #493934",
"Z  c #4D4115",
"A  c #4D421A",
"S  c #464214",
"D  c #5C4313",
"F  c #52451A",
"G  c #55491C",
"H  c #5B4B1D",
"J  c #574517",
"K  c #5D4B15",
"L  c #63450F",
"P  c #674917",
"I  c #734817",
"U  c #6C541D",
"Y  c #66541B",
"T  c #76561B",
"R  c #7A480E",
"E  c #594724",
"W  c #564A3B",
"Q  c #564D30",
"!  c #664D22",
"~  c #6D5922",
"^  c #675624",
"/  c #735C23",
"(  c #785D26",
")  c #71552E",
"_  c #7B6224",
"`  c #776427",
"'  c #756433",
"]  c #786215",
"[  c #635A48",
"{  c #5B5741",
"}  c #875518",
"|  c #8B4E13",
" . c #89651C",
".. c #96671B",
"X. c #97721D",
"o. c #A3771F",
"O. c #855F25",
"+. c #836423",
"@. c #8C6B24",
"#. c #876928",
"$. c #956C26",
"%. c #8C732C",
"&. c #93742C",
"*. c #9B7B2C",
"=. c #977728",
"-. c #876F34",
";. c #867639",
":. c #977A35",
">. c #A47B27",
",. c #A47B33",
"<. c #B47D2B",
"1. c #8B7B41",
"2. c #9B8637",
"3. c #9A8530",
"4. c #A5832C",
"5. c #AA842D",
"6. c #A9892A",
"7. c #B4892B",
"8. c #BB962B",
"9. c #A58433",
"0. c #A58933",
"q. c #AB8B33",
"w. c #AC8C3C",
"e. c #A78737",
"r. c #B28D33",
"t. c #B38B3A",
"y. c #AC9238",
"u. c #B49335",
"i. c #BA9434",
"p. c #B4933A",
"a. c #B9953A",
"s. c #B59A3B",
"d. c #BB9C3C",
"f. c #B89A34",
"g. c #AF902D",
"h. c #BDA23D",
"j. c #BAA238",
"k. c #AFA335",
"l. c #C19A2E",
"z. c #C29D3B",
"x. c #C59936",
"c. c #C78B34",
"v. c #C3A33D",
"b. c #CAA53B",
"n. c #CCAA3D",
"m. c #C7A738",
"M. c #D2AC3B",
"N. c #D8B33A",
"B. c #C9A833",
"V. c #998545",
"C. c #978D53",
"Z. c #A58C45",
"A. c #B38D42",
"S. c #A99548",
"D. c #B49542",
"F. c #B69A43",
"G. c #BB9C43",
"H. c #B79949",
"J. c #A89755",
"K. c #BEA243",
"L. c #BDA34A",
"P. c #B9A74A",
"I. c #BAA654",
"U. c #BFB049",
"Y. c #A99964",
"T. c #B8AC6D",
"R. c #C19E47",
"E. c #C3A543",
"W. c #C4AA44",
"Q. c #CBAB44",
"!. c #C2A54B",
"~. c #C5AB4B",
"^. c #CBAC4B",
"/. c #CAA646",
"(. c #D2AE44",
"). c #D3AB48",
"_. c #CCB24B",
"`. c #CCB445",
"'. c #D3B344",
"]. c #D3B44B",
"[. c #DAB64A",
"{. c #DBBB4C",
"}. c #D8B846",
"|. c #CBAD53",
" X c #C5AA55",
".X c #CDB353",
"XX c #C9B458",
"oX c #D3B453",
"OX c #D5BA54",
"+X c #DBBC54",
"@X c #DBBC5A",
"#X c #D6B659",
"$X c #D1AB58",
"%X c #E2BC48",
"&X c #E2BD53",
"*X c #E0BD58",
"=X c #CAB667",
"-X c #D7BA65",
";X c #CAB46E",
":X c #E09F40",
">X c #DCC14E",
",X c #DEC254",
"<X c #DAC55D",
"1X c #CEC159",
"2X c #E3C34C",
"3X c #E6C748",
"4X c #E3C353",
"5X c #EACA54",
"6X c #E2C55A",
"7X c #ECCD5C",
"8X c #E6C958",
"9X c #EAD45B",
"0X c #F3D455",
"qX c #DAC365",
"wX c #D6C675",
"eX c #C7C476",
"rX c #E7CA65",
"tX c #ECD365",
"yX c #E9D568",
"uX c #F4D667",
"iX c #E6D375",
"pX c #F1D36F",
"aX c #F9E578",
"sX c #F7E66E",
"dX c #DECA3C",
"fX c #DACA87",
"gX c #E9DA88",
"hX c #F2DB8F",
"jX c #FBEA8A",
"kX c #FAE998",
"lX c #FDF49C",
"zX c #FEF696",
"xX c #F3E993",
"cX c #FAEBA9",
"vX c #FEF6A5",
"bX c #FFF9A5",
"nX c #FEF5AB",
"mX c #FFF9AC",
"MX c #FFF5B4",
"NX c #FFF9B3",
"BX c #FFF5BC",
"VX c #FFFABC",
"CX c #E8E2A0",
"ZX c #FFF5C3",
"AX c #FFFAC4",
"SX c #FFFBCB",
"DX c #FFF6CA",
"FX c #FFFDD4",
"GX c #FFFEDA",
"HX c #EBEDCA",
"JX c #FDF9E5",
"KX c None",
/* pixels */
"KXKXKXKXKXKXKXKXKXKXKXKXKXKXKXKXKXKXKXKXKXKXKXKXKXKXKXKXKXKXKXKXKXKXKXKXKXKXKXKXKXKXKXKXKXKXKXKXKXKXKXKXKXKXKXKXKXKXKXKXKXKXKXKXKXKXKXKXKXKXKXKXKXKXKXKXKXKXKXKX",
"KXKXKXKXKXKXKXKXKXKXKXKXKXKXKXKXKXKXKXKXKXKXKXKXKXKXKXKXKXKXKXKXKXKXKXKXKXKXKXKXKXKXKXKXKXKXKXKXKXKXKXKXKXKXKXKXKXKXKXKXKXKXKXKXKXKXKXKXKXKXKXKXKXKXKXKXKXKXKXKX",
"KXKXKXKXKXKXKXKXKXKXKXKXKXKXKXKXKXKXKXKXKXKXKXKXKXKXKXKXKXKXKXKXKXu ;.F.s.G.!.~./.).G.A.D.S.S.v W KXKXKXKXKXKXKXKXKXKXKXKXKXKXKXKXKXKXKXKXKXKXKXKXKXKXKXKXKXKXKX",
"KXKXKXKXKXKXKXKXKXKXKXKXKXKXKXKXKXKXKXKXKXKXKXKXKXKXKXKXKXa H.~.].).B./.o.B g , g f f f B <.n.W. XI.I.E KXKXKXKXKXKXKXKXKXKXKXKXKXKXKXKXKXKXKXKXKXKXKXKXKXKXKXKX",
"KXKXKXKXKXKXKXKXKXKXKXKXKXKXKXKXKXKXKXKXKXKXKXKXKXKXC I.[.[.(.R , 8 l -.=XfXwXgXgX=X XH.2.) M p 5 , 7.E.I.J.m KXKXKXKXKXKXKXKXKXKXKXKXKXKXKXKXKXKXKXKXKXKXKXKXKX",
"KXKXKXKXKXKXKXKXKXKXKXKXKXKXKXKXKXKXKXKXKXKXKXKXV !.&X&Xg f M gXcXjXMXMXMXBXBXGX@X@XpXrXrXoX|.R.S.;.Q a 8 7.t.S.' KXKXKXKXKXKXKXKXKXKXKXKXKXKXKXKXKXKXKXKXKXKXKX",
"KXKXKXKXKXKXKXKXKXKXKXKXKXKXKXKXKXKXKXKXKXKXp oX4Xx.f M MXMXAXAXMXBXMXZXZXZXDXhXH.:.7XuXpXpX*X[./.p.~ ( U P p f p.D.' KXKXKXKXKXKXKXKXKXKXKXKXKXKXKXKXKXKXKXKXKX",
"KXKXKXKXKXKXKXKXKXKXKXKXKXKXKXKXKXKXKXKXKX.X%Xb.g =XBXBXZXSXSXBXBXBXMXZXMXZXJXCXx.e.).7XtX7X7X%Xz.*._ ~ Y ~ Y E m , 6.0.> KXKXKXKXKXKXKXKXKXKXKXKXKXKXKXKXKXKXKX",
"KXKXKXKXKXKXKXKXKXKXKXKXKXKXKXKXKXKXKXV.8XN.N Y.lXNXNXBXAXVXVXVXVXmXMXnXZXZXMXo.-Xx.R.rXuXuX0X&Xh.%.~ U Y / Y Y F ! a } 7.w.KXKXKXKXKXKXKXKXKXKXKXKXKXKXKXKXKXKX",
"KXKXKXKXKXKXKXKXKXKXKXKXKXKXKXKXKXKX].2X| E mXmXAXSXVXVXSXAXVXVXmXMXlXMXBXDXcXgXpXgXpXuX7X7X&X).0.#.Y U U Y ~ K G A E E 4 8.=.e KXKXKXKXKXKXKXKXKXKXKXKXKXKXKXKX",
"KXKXKXKXKXKXKXKXKXKXKXKXKXKXKXKXr #XN.N SXw.SXFXFXSXAXAXAXVXAXVXBXMXvXBXMXMXMXjXjXjXjXuXuXtX[.W.&.` Y U ` Y ` Y ^ ( ~ M G ^ ..>.b KXKXKXKXKXKXKXKXKXKXKXKXKXKXKX",
"KXKXKXKXKXKXKXKXKXKXKXKXKXKXKX' 4X7.M SXI SXSXFXSXAXAXAXSXVXNXVXZXBXZXMXZXDXBXMXhXjXaXuXtXtX].q._ ~ ` U ` U U Y @.kXV./ t F ' k 6.' KXKXKXKXKXKXKXKXKXKXKXKXKXKX",
"KXKXKXKXKXKXKXKXKXKXKXKXKXKXS.8X} ;XSXSXD.B FXN.SXSXAXAXAXSXSXVXAXSXAXZXBXZXMXMXcXjXjXjXaXpXQ.&._ / ` / ~ ` K U / aXs.P : x F +.; $.;.KXKXKXKXKXKXKXKXKXKXKXKXKX",
"KXKXKXKXKXKXKXKXKXKXKXKXKXS.2Xg CXNXSXSXB OX).fXSXFXSXFXSXFXSX].+X4X6X'.e.p.q.9.R.!.z.I.R.R.e.,.&.&._ U P ~ H  .R.M gXJ.6 l 9 m I ; $.` KXKXKXKXKXKXKXKXKXKXKXKX",
"KXKXKXKXKXKXKXKXKXKXKXKXV.0Xg nXVXSXSXSXDXFXkXSXFXFXFXSXx.#X_.E./.G.p.,.,.A.s.q.#X!.oX*.=XI.,.Z.C.J.V.x Y U H Y U N o.3 4 9 9 6 x I ,  .! KXKXKXKXKXKXKXKXKXKXKX",
"KXKXKXKXKXKXKXKXKXKXKXy *Xk CXAXFXSXSXFXFXFXFXFXFXVX].^.Q.d.p.!.t.G.~.+X!.t.G.^.a.$X$.=.#XoXH.D.H.fXV.S.1.b K H J Z m t 6 7 t 4 6 t ..I O.e KXKXKXKXKXKXKXKXKXKX",
"KXKXKXKXKXKXKXKXKXKXV &X7.fXSXSXFXFXFXGXFXGXGXSX8X*XQ.].#XE.!.#XoXG.*X/.w.4.Q.>.>...{.OX~.7X-X=XCXI.F.e.V.1.> J D A Z v 9 7 6 6 3 q l 8Xa.T KXKXKXKXKXKXKXKXKXKX",
"KXKXKXKXKXKXKXKXKXKX_.N.^ ZXSXSXFXFXFXGXFXFXFXOXD.{.-X*XR.G.#XpXoXa.%X^.d.{.].x.i.Q.u.3Xr.2XR.iX=XD.#XD.#.%.' r Z F S 9 7 6 4 3 2 2 : j VX=.( KXKXKXKXKXKXKXKXKX",
"KXKXKXKXKXKXKXKXKXE.%Xl AXAXFXFXFXFXGXFXZXFX).W.+X<X$Xa.$XW.|.^.i.r.rX@X*X+Xz.].h.7.i.Q.R.[.G.v.W.I.XX@.%.D.e.^ h Z v 9 t t 2 2 : : * 3 j C.] n KXKXKXKXKXKXKXKX",
"KXKXKXKXKXKXKXKXm +Xk vXSXFXFXSXFXFXFXFXFX&X[.R.).a.#Xw.W.,.A.]./.p..X/.~.8.v.a.v.v.`._.n.Q.i.Q.b.#XL.P.F.A.G.Z.Q h h 7 4 3 : 2 2 * * * 2 } <.U W KXKXKXKXKXKXKX",
"KXKXKXKXKXKXKXKX{.B.T.DXSXFXFXFXFXFXGXSX5X,X*XG.|.!.oXXX-X-X`.-Xa.~.r._.5.f.[.}.5X}.}.'.m.B.m.u.].rX-XF.F.L.Z.:.Y.3 a 6 4 3 2 * & * % * * 3 BX .#.KXKXKXKXKXKXKX",
"KXKXKXKXKXKXKXI.+XM ZXFXFXFXFXFXFXFXGX@X~.rX#X$X-X X$X@XrX].~.d.F.h.h.'.OX{.>XM.n.}.B.4Xx.f.(.{.}.tXqXe.qXXXG.0.S.& 4 6 4 2 : * * * * 2 < % k :.I C KXKXKXKXKXKX",
"KXKXKXKXKXKXKX.X} mXFXFXFXFXFXFXFXGXDX/.t.-XqXiXrXrX#XoXoX_.W.h.`.v.'.,X'.Q.l.%XrX'.6X8X7XOXz.'.x.uXv.d.qXXXH.w.9.HX2 6 q : * * & : > iX#.Y $ kX=.~ KXKXKXKXKXKX",
"KXKXKXKXKXKXI.%X5 FXFXFXFXFXFXFXGXFXFXDXwXM iXrXrX&X).@XOXOX].}.].[.,X`.'.4XM.&XtX6X7Xa.>X-XK.7.8.8X-X/.@XqXH.=Xw.S.: 6 4 2 * % = < B -.+ > P.> q.T C KXKXKXKXKX",
"KXKXKXKXKXKX/.<.GX-XD.FXFXFXFXFXFXGXGXGXGXGXFX*XrXrX#X#X[.].).'.'.&Xm.b.rXr.'.'.b.m.}.v._.z.d.n.[.i.s.v.rXqX-XqXZ.-.* 3 2 * * = & % ,.u q _.E   cX#.H KXKXKXKXKX",
"KXKXKXKXKX-.5Xk *XSX).4XrXFXGXFXGXGXGXGXGXGX[.7XrX*XrX*XE.].Q.[.[.3X_.{.0Xd.>Xb.j.f.v.x.d.K.r.'.v.W.f.OX,X@XwX=Xd.V.& 3 2 * % $ $ % o : P : . % , I.P KXKXKXKXKX",
"KXKXKXKXKXoXl.SXO.#X4.SXSXGXFXGXFXGXGXGXGX).pXrX|.(.oX@X[.].Q.{.&X8X-XpX2XE.^.W.`.'.<XM.f.4.@.u.h._.z.a.s.6X-Xe.<XT.= : 2 0 & $ X X .     . . X + wXP 6 KXKXKXKX",
"KXKXKXKXp *XxXAXSXBXxX#XFXFXGXFXFXGXGXGXSX6X@X{.7X7.7.5.r.W.n.'.2X8X4XuXu.aX8X5X{.z.Q.E.E.t.9.*.q.5.p.y.W.s.|.G.^.V.$ 2 0 * % X X           . o O kX@.Y KXKXKXKX",
"KXKXKXKX~.2X#.FXFXSXFXSXSXFXGXFXGXFXFXGXGXI #Xw.-.|.8XW.5.d.b.{.}.4X8X].^.'.8X5X}.n.v.6.6.4.u.q.>.4.q.p.q.!._._.P.C.$ 2 * % $ X .         . . X X , (.L KXKXKXKX",
"KXKXKXKX+Xz.DXFXFXSXSXFXFXFXFXFXGXGXGXGXGXGX>.~.!.M.>.d.h.h.M.'.%X'.'.4Xm.{.9X..qXn.6._.`.r.v.f.r.q.g.K.D.E.0.+X~.V.0 * 2 % $ X             . . O %  .L W KXKXKX",
"KXKXKXW 8XkXSXFXSXAXSXSXSXFXFXGXGXGXGXGXGXGX2X!.|.H..X+.X.v.Q.3X3X2X+X4X'.uX{.sXtX7.} G.+Xu.r.q.>.,.0.$.g.p.Q.E._.C.C.- * $ X X       . .   X . X X BXI 7 KXKXKX",
"KXKXKXM 7XrXDXFXZXFXSXFXSXGXFXGXGXGXGXGXGXl.Q.W.L...,Xg._.+X5X5X%XM.4X7X{.5X{.5XM. .v.8X`.s.'.G.e.} g.Q.4.d.4.OXtX:.2.% % $ X X       . . X X . X X NXT ! KXKXKX",
"KXKXKXXX{.#XSXFXSXFXSXSXFXFXFXGXGXGXGXGXFX'.`./.!.x.}.n.E.4X2X5X3XN.'.uX3X%X0XQ.+Xd.uX(.j $.5._.%...7.z.p.z.E.w.d.1.2.X % % . .         X o o . o o uXv.^ KXKXKX",
"KXKXKX).z.ZXSXFXSXSXSXSXSXFXFXFXGXGXGXGX).oX[.#XH.G.r.E.,X2X%X5X%X%X}.M.x.z.}.W.e.uXI rX:.h.i.D.T y.4.6.g.i.u.u.P.Y.2.- % $ X .   o     X .   o @ % | +X$.KXKXKX",
"KXKXKXOX$XSXSXSXFXSXAXAXSXSXFXFXGXGXGX>./.6Xa.*X@X&X4X6X8X}.M.}.2X2X{.{.h.u.h.E./.sX=Xz.*.y.9.gX_.W.<X_.W.n.e.D.H.S.^.{ X X . .       X o o X o X @ , 7.L KXKXKX",
"KXKXKXOXJXZXSXSXFXAXAXSXAXSXSXFXGXGXFX5XqX+Xw.oX[.2X3X3XN.i.Q.{.>X4X{.].a.`.v.].4XaXOX$.e.A.`.xX4X].{.OXQ.[.n.p.h.p.D.Y.$ . . $     X X X X o o @ + ; z.L [ KXKX",
"KXKXQ +XSXSXSXSXFXSXAXSXSXSXSXFXGXGXZX[.6X+Xn.@.#XuXN.B.r.d.,X2X2X>X{.W.W.Q.>X4XaX( L.+X/.w.4X@X#XQ.4XoXR.#Xd.v.I.W.S.;X. . . X     X X X o @ X @ X ; c.D W KXKX",
"KXKXt &XDXAXSXDXDXSXAXDXSXSXSXSXFXGXDX@.U f d.r. X2XB.i.G.,X,X{.{.>X}.`.].`.'.7XjX!./.tX9.*XI.].~.W.Q.R.E.i.W.n.K..X0.` X .   X     X X X + X o @ o ; x.B V KXKX",
"KXKX3 +XDXZXVXSXSXVXSXVXAXAXAXSXSXSXFXBX,.I #X#.^.M.l.i.oX,X{.[.2X4X}.{.,X{.Q.8XO.!.a.a.].p.XX.XE.q.!.,._.oX4.'.K.^.h.e.{         X X o o @ X @ o o ; ].L C KXKX",
"KXKX> 4XkXSXVXSXSXAXVXVXAXAXVXVXSXSXSXFXFX%XoXQ.+Xb.8.a.OX[.{.>X4X8X{.4X].].u.&XsX>X5.w.uXV.).^.K.6X!.s.E.w.G.'.a.`.I.F.V..       X X X o o @ o o @ ; &XB d KXKX",
"KXKXt 4XZ.AXAXSXAXVXVXAXAXAXAXAXAXSXSXFXFX2X+X`.z.M.n.Q.Q.].{.4X2X{.%X{.{.h.9.'.uX}.f.Q.! ].^.~./.E.~.#Xa.!.E.].p.W.wX3.@.m     o o X X X X X @ X @ , {.B W KXKX",
"KXKXV &X*.DXSXZXSXVXVXVXSXVXAXSXZXSXFXFXB n.{.).E.[.'.].].|.#X4X}.{.{.Q.v.i.4.d.>.T k #._.^.~.^.~.p.0.K.W.].R.].h.K.u.q.3._ - X X o o @ @ 2.@ o o % , 8XB [ KXKX",
"KXKXKX[. .SXFXSXVXAXNXNXVXAXAXAXSXAXAXAXSX.XP u.v.4X6X#X[.oX[.>X[.+X}.`.j.f.4.p.2.w.|._.Q.Q.^.|.~.!.G.s.Q.W.{.}.0.4.%.&.( +.( + o o % o o ].J y r r c.pXb.W KXKX",
"KXKXKX(.X.VXxXnX@XOXVXVXVXSXNXNXAXVXVXSXZXT s.W.$.6X2X].|.oX#X@X{.].W.v.d.u.s.q.e.@X/.Q.^.Q._.W.W.L.D.Q.z.z.,Xv.&.*.+.@.T 8 > X @ X o @ o ; P.5.( ! nX$.&.[ KXKX",
"KXKXKX`.B.NX .N rXkXNXMXVXAXVXAXAXAXVXAXSXVX$X6X8X6X'.}.v.].OX#X'.Q.W.Q.d.a.a.u.|.D.#X^.~.).~./.!..XW.w.v.v.R.*.#.#.+.x + X X o X o % X o =.P > ; % FXL ) KXKXKX",
"KXKXKXK.x.S.h.yXNXlXmXmXmXVXVXVXVXSXVXVXSXDXM.+X4X[.).Q.b.].'._.b._.v.E.t.q.q.d.|.A./.^.^.`.~.|.Q.E.!.Q.G. .$.=.V.~ % X o X X o @ @ + X o @ % + > ; vXP E KXKXKX",
"KXKXKX2.}., lXvXbXmXMXNXNXVXNXVXNXVXAXVXDXt.'.6X+X{.^.[.'._.E./.W.E.d.d.q.9.d.w.].L.OX^.~.K.#XQ.W.W.W./._.`.h.h.r . . . X o X o % X + X @ X % X X , @XD m KXKXKX",
"KXKXKX7 3XT mXlXvXvXmXMXNXNXNXNXmXVXVXNXMX=X}.'.oXE.^.W.v.s.h.d.h.s.a.0.0.L.v. XW.|.].v.L.oXQ./.n.v.v.v.{.m._ X X .   X X o o o X % o o + % + + % cXy.P Q KXKXKX",
"KXKXKXKX'.7.zXzXzXvXnXvXMXbXNXNXmXVXNXAXVXAX4.q.u.%.@.9.5.q.r.q.w.p.q.p.L.L.R.$XE.@XW.|.].W.E.E.h.h.W.}.j.a X . . .   X X X o @ @ o @ o @ + o + % ZXP J W KXKXKX",
"KXKXKXKX`.M.I.MXvXbXbXvXvXvXmXmXNXNXVXmXNXVX X_ @.*.q.#.@.q.u.t.F.K.I.L.L.E.L.|.~.oXOXQ.Q.K.K.K.W.h.'.+.* X X X     X X o o $ @ X @ @ @ @ o @ @ , yXj y KXKXKXKX",
"KXKXKXKX] '.l bXMXmXbXbXmXmXbXNXVXVXVXAXSXVXNXgXP U ,.E.p.&.=.s.K.K.L.K.H.W.!.~. X].W.K.E.K.E.z.d.'.z @ % $ X . . . X X X @ @ $ + @ @ % + + @ o kX6.D v KXKXKXKX",
"KXKXKXKXT.N.o.jXvXmXMXMXmXmXvXmXVXVXVXAXSXVXVXAXxX.X9._ 6.E.W.e.g.K.!.H.L.E.G. X}./.K.d.K.h.d.K.p.r * - & $ X       . X o @ % o X + o + @ X @ # mXM 8 C KXKXKXKX",
"KXKXKXKXKXi.B.*.lXlXMXNXmXNXvXvXNXVXVXVXAXAXNXAXvX1Xs.&.^ T y.d.K.K.h.K.K.E.W.b.b.v.z.d.s.s.G.O.: 2 0 : & X         X X o X % @ % @ X + + + + :Xq.D l KXKXKXKXKX",
"KXKXKXKXKXT N.L zXvXNXMXmXvXbXNXbXNXAXAXAXVXNXVXgXW.0.~ G E J 4.d.K.h.G.R.v.m.z.K.h.s.u.v.d.l : 3 q 2 < $ X .     X X o o + + % X X % % @ % * mXP h V KXKXKXKXKX",
"KXKXKXKXKXKXi.l.XXNXbXbXmXlXNXmXNXNXVXSXAXVXAXvX_.y.%.! G G H G %.y.s.s.d.v.a.i.d.s.h.f.f.1 6 6 3 4 : % X X .   X X X X X X X % @ @ + + % + c.p.M 8 W KXKXKXKXKX",
"KXKXKXKXKXKX%.M.k zXNXlXnXbXVXmXcXmXvXNXNXmXlXqXE.&.~ H H G G H K c &.e.Q.a.i.a.s.r.d.3.: 5 y 6 1 8 * X $ % . .   X o X + o X @ @ o + @ = & aXD 7 d KXKXKXKXKXKX",
"KXKXKXKXKXKXa 9.B.I.nXbXmXNXVXD.^.hX2.kXL.cXXXCXgX/ NXV.H H G G G H E e.d.p.p.t.i.s./ l y P 6 ! <Xy.X X . s.H.K.K.y.@ v.c F.g.=.s. .+.% = 0X .P l C KXKXKXKXKXKX",
"KXKXKXKXKXKXKX8 i. .aXzXjXbXVXcXa.nX;XxXH.J.1X^ iX^ ;.<XF J G F G H e.a.g.r.g.y.w.z 6 M ( K.O.a ,., u .   > P.* w._.Q y.# J.x 0.+ f.% & , l.M > p KXKXKXKXKXKXKX",
"KXKXKXKXKXKXKXu 4.B.T jXjXzXmXxXh.K.S.U.Z.gXU.XXH b =X~.F F F G E Y u.u.5.5.>.w.y 6 h j s.:.W.% D.J X . . X H.$ y.2.& y.P 3.%.p.= j.+ ; sXP Z m d KXKXKXKXKXKXKX",
"KXKXKXKXKXKXKXKXt q.l.Z.aXjXaX,X1XP.%.U.k.:.G E a A x t F F A G A H y > ; & : q 9 x x x _ & w.% F.p.` . . > H X 7 X 3 @ , = & 1 * ; : 0X} U x a KXKXKXKXKXKXKXKX",
"KXKXKXKXKXKXKXKXi > 8.7.<XsXsXyXyX<X1X1XK.3.H F A F G A A F S Z M b 9 v y v 9 v x 9 9 7 < % X $ X X X .   . X X o @ X X X o @ % + @ 5X5.L 6 d W KXKXKXKXKXKXKXKX",
"KXKXKXKXKXKXKXKXKXr ` d.T 9XsXyX9XyX<X`.0.#.G G G Z F F G E Z F b Z b v v v c x x 7 y 5 * % $ X   X . . . . . . X X X @ $ @ % + + 7.j.L l r d KXKXKXKXKXKXKXKXKX",
"KXKXKXKXKXKXKXKXKXKXt *.j.k iXyX9X9X_.0.` ^ fXG A A F F F n b S n A A b b Z n h 4 8 4 2 * $ . X .       . . X + X o @ X @ % X @ ..o.k b t e KXKXKXKXKXKXKXKXKXKX",
"KXKXKXKXKXKXKXKXKXKXr 7 4.8.S yX9X>Xp._ ^ b G K.m A A A A b n v A M b b x 1X1X2.3 6 2 % % $ X $         . = 8Xq.& @ X X % = X 7.6.D M t t KXKXKXKXKXKXKXKXKXKXKX",
"KXKXKXKXKXKXKXKXKXKXKXs t &.i.B <XK.%.~ F F y.U.p n A Z F A b Z A Z Z x c c !.% < 2 : * % $ $ X X       . OX/ 4.+ % X X X $ 3X6.D Z e e KXKXKXKXKXKXKXKXKXKXKXKX",
"KXKXKXKXKXKXKXKXKXKXKXKXi y $.r.} K.~ ~ yX#.5 l Z V A M v m b F F Z v a x x 2.% 0 * - * & $ X .           o X %.% $ X X + dXX.P D 3 i KXKXKXKXKXKXKXKXKXKXKXKXKX",
"KXKXKXKXKXKXKXKXKXKXKXKXKXi m #.q.6.3.U  .9XF v Z Z n b A n M aX<X/ n x x l 0 * * 2 < j F X $ $ X       X . + $.& X X g 0XL Y h 0 u d KXKXKXKXKXKXKXKXKXKXKXKXKX",
"KXKXKXKXKXKXKXKXKXKXKXKXKXKXi y c >.7.k &.f > F Z Z n n F A yX_ > %.= l 9 8 q : 2 : q -XT.X X X X .   . X . X =.S + 3X6.L Y 8 2 1 C KXKXKXKXKXKXKXKXKXKXKXKXKXKX",
"KXKXKXKXKXKXKXKXKXKXKXKXKXKXKXi i , $.>.X.#.~ F A H A n b M &.> c P.T.y 8 y 5 1 3 3 5 S.eXX $ X . X . . . X X % 7.9X .P b 3 < w KXKXKXKXKXKXKXKXKXKXKXKXKXKXKXKX",
"KXKXKXKXKXKXKXKXKXKXKXKXKXKXKXKXi t 7 P =.>.| .X_ ! E F A M $.> D 9.1 8 y 6 5 3 q 3 q 2.I.X $ X X X X X $ = l.sX*.I Y f : 0 w KXKXKXKXKXKXKXKXKXKXKXKXKXKXKXKXKX",
"KXKXKXKXKXKXKXKXKXKXKXKXKXKXKXKXKXd u r > ` *.4.} W.:.! F n ( @.sX@.: l 7 7 t t q 3 3 :.H.$ $ X $ $ * 5 9XuX=.I / j h - < w KXKXKXKXKXKXKXKXKXKXKXKXKXKXKXKXKXKX",
"KXKXKXKXKXKXKXKXKXKXKXKXKXKXKXKXKXKXKXs u l , +.$.*.o.E.pX>.P f , f l h c l 7 6 5 r 5 ` K = : > g M.0Xg. .T _ j h < * - d KXKXKXKXKXKXKXKXKXKXKXKXKXKXKXKXKXKXKX",
"KXKXKXKXKXKXKXKXKXKXKXKXKXKXKXKXKXKXKXKXu u u y 8 P O.X.o.>.6.uXaX+X,.| L P M k N N k B i.yX0X<X4.>._ ` Y j 6 0 0 - w KXKXKXKXKXKXKXKXKXKXKXKXKXKXKXKXKXKXKXKXKX",
"KXKXKXKXKXKXKXKXKXKXKXKXKXKXKXKXKXKXKXKXKXKXs u e y l 7 P O.@.+.X.>.=.$.w.E..X].^.7.=.,.,.4.&.%.+.H D M a - - < w KXKXKXKXKXKXKXKXKXKXKXKXKXKXKXKXKXKXKXKXKXKXKX",
"KXKXKXKXKXKXKXKXKXKXKXKXKXKXKXKXKXKXKXKXKXKXKXKXi w < q q c j j P Y ( ^ +.+.( @.+.%.P _ Y Y J j 9 0 * 0 < - i d KXKXKXKXKXKXKXKXKXKXKXKXKXKXKXKXKXKXKXKXKXKXKXKX",
"KXKXKXKXKXKXKXKXKXKXKXKXKXKXKXKXKXKXKXKXKXKXKXKXKXKXd e q q w t q 8 l h h j f j h c c l 5 : 1 < 0 < 0 w s KXKXKXKXKXKXKXKXKXKXKXKXKXKXKXKXKXKXKXKXKXKXKXKXKXKXKX",
"KXKXKXKXKXKXKXKXKXKXKXKXKXKXKXKXKXKXKXKXKXKXKXKXKXKXKXKXKXd i i e w w < < < u < - < < - 0 - w w e KXKXKXKXKXKXKXKXKXKXKXKXKXKXKXKXKXKXKXKXKXKXKXKXKXKXKXKXKXKXKX",
"KXKXKXKXKXKXKXKXKXKXKXKXKXKXKXKXKXKXKXKXKXKXKXKXKXKXKXKXKXKXKXKXKXKXd d s w i e w e w s s KXKXKXKXKXKXKXKXKXKXKXKXKXKXKXKXKXKXKXKXKXKXKXKXKXKXKXKXKXKXKXKXKXKXKX",
"KXKXKXKXKXKXKXKXKXKXKXKXKXKXKXKXKXKXKXKXKXKXKXKXKXKXKXKXKXKXKXKXKXKXKXKXKXKXKXKXKXKXKXKXKXKXKXKXKXKXKXKXKXKXKXKXKXKXKXKXKXKXKXKXKXKXKXKXKXKXKXKXKXKXKXKXKXKXKXKX",
"KXKXKXKXKXKXKXKXKXKXKXKXKXKXKXKXKXKXKXKXKXKXKXKXKXKXKXKXKXKXKXKXKXKXKXKXKXKXKXKXKXKXKXKXKXKXKXKXKXKXKXKXKXKXKXKXKXKXKXKXKXKXKXKXKXKXKXKXKXKXKXKXKXKXKXKXKXKXKXKX"
};
